<?xml version="1.0" encoding="UTF-8" standalone="no"?>
<svg
   xmlns:dc="http://purl.org/dc/elements/1.1/"
   xmlns:cc="http://creativecommons.org/ns#"
   xmlns:rdf="http://www.w3.org/1999/02/22-rdf-syntax-ns#"
   xmlns:svg="http://www.w3.org/2000/svg"
   xmlns="http://www.w3.org/2000/svg"
   xmlns:sodipodi="http://sodipodi.sourceforge.net/DTD/sodipodi-0.dtd"
   xmlns:inkscape="http://www.inkscape.org/namespaces/inkscape"
   inkscape:version="1.0beta1 (32d4812, 2019-09-19)"
   sodipodi:docname="kidaha-07-dead.svg"
   xml:space="preserve"
   style="enable-background:new 0 0 1000 1000;"
   viewBox="0 0 1000 1000"
   y="0px"
   x="0px"
   id="monster"
   version="1.1"><metadata
   id="metadata104">
  <rdf:RDF>
    <cc:Work
       rdf:about="">
      <dc:format>image/svg+xml</dc:format>
      <dc:type
         rdf:resource="http://purl.org/dc/dcmitype/StillImage" />
      <dc:title></dc:title>
    </cc:Work>
  </rdf:RDF>
</metadata>
<defs
   id="defs102">
	
	
	
	
	
	
</defs>
<sodipodi:namedview
   inkscape:current-layer="monster"
   inkscape:window-maximized="0"
   inkscape:window-y="23"
   inkscape:window-x="0"
   inkscape:cy="564.38288"
   inkscape:cx="387.89905"
   inkscape:zoom="0.34641278"
   showgrid="false"
   id="namedview100"
   inkscape:window-height="1209"
   inkscape:window-width="1600"
   inkscape:pageshadow="2"
   inkscape:pageopacity="0"
   guidetolerance="10"
   gridtolerance="10"
   objecttolerance="10"
   borderopacity="1"
   inkscape:document-rotation="0"
   bordercolor="#666666"
   pagecolor="#ffffff" />

<style
   id="style10"
   type="text/css">
	.st0{fill:#C783B7;}
	.st1{fill:#125785;}
	.st2{fill:#8E4C87;}
	.st3{fill:#1B70B6;}
	.st4{fill:#66A0D7;}
	.st5{fill:#1E1F1D;}
	.st6{fill:#A3201B;}
	.st7{fill:#E32D28;}
	.st8{fill:url(#SVGID_1_);}
	.st9{fill:#FFFFFF;}
	.st10{fill:#D5418F;}
	.st11{fill:#E3C724;}
	.st12{fill:#A7C833;}
	.st13{fill:#E6362C;}
	.st14{fill:#C72C28;}
	.st15{fill:#E3AB28;}
	.st16{fill:#9DC42B;}
	.st17{fill:#FADF21;}
	.st18{fill:#CA9220;}
	.st19{fill:#94C128;}
	.st20{fill:#74922B;}
	.st21{fill:#59AE33;}
	.st22{fill:#499834;}
	.st23{fill:#E62A46;}
	.st24{fill:#CD163B;}
	.st25{fill:#063E51;}
	.st26{fill:#B2B1B0;}
	.st27{fill:#E62A3B;}
	.st28{fill:#CA152C;}
	.st29{fill:url(#SVGID_2_);}
	.st30{fill:url(#SVGID_3_);}
	.st31{fill:#C71B1B;}
	.st32{fill:#E52523;}
	.st33{fill:url(#SVGID_4_);}
	.st34{fill:#E43333;}
	.st35{fill:#9C1C1B;}
	.st36{fill:#C8C7C7;}
	.st37{fill:#C39E05;}
	.st38{fill:#E5B90D;}
	.st39{fill:#F1C906;}
	.st40{fill:#F7B21C;}
	.st41{fill:#566EB3;}
	.st42{fill:#4081C2;}
	.st43{fill:#F2AABB;}
	.st44{fill:#EA6379;}
	.st45{fill:#C83C5A;}
	.st46{fill:#CF4162;}
	.st47{fill:#B01C1C;}
	.st48{fill:#E52923;}
	.st49{fill:#125B95;}
	.st50{fill:#EEEDED;}
	.st51{fill:#B1B1B0;}
	.st52{fill:#98C01E;}
	.st53{fill:url(#SVGID_5_);}
	.st54{fill:#5DC2DB;}
	.st55{fill:url(#SVGID_6_);}
	.st56{fill:url(#SVGID_7_);}
	.st57{fill:#030405;}
	.st58{fill:#8666A4;}
	.st59{fill:#AE8FC2;}
	.st60{fill:#8860A3;}
	.st61{fill:#704693;}
	.st62{fill:#C8C6C7;}
	.st63{fill:#A7C835;}
	.st64{fill:#64B335;}
	.st65{fill:#174865;}
	.st66{fill:#5895C5;}
	.st67{fill:#4F2672;}
	.st68{fill:url(#SVGID_8_);}
	.st69{fill:url(#SVGID_9_);}
	.st70{fill:url(#SVGID_10_);}
	.st71{fill:url(#SVGID_11_);}
	.st72{fill:#FAB21E;}
	.st73{fill:#FBD704;}
	.st74{fill:#FAC00F;}
</style>

<g
   id="g31"
   style="opacity:1;stop-opacity:1">
		<g
   id="g29">
			<g
   id="XMLID_91_">
				<g
   id="g26">
					<path
   class="st43"
   d="m 262.5454,932.4766 c 0,0 0.7534,25.4306 -25.9687,27.6186 -4.7701,-3.4433 -7.8907,-9.0747 -7.8907,-15.459 0,-10.5454 8.5723,-19.1181 19.0816,-19.1181 5.9541,0 11.2627,2.726 14.7778,6.9585 z"
   id="path12"
   inkscape:connector-curvature="0" />

					<path
   class="st44"
   d="M 358.3135,809.5928 V 439.8999 h 45.9111 v 379.1616 c -16.0332,-7.9985 -45.9111,-9.4687 -45.9111,-9.4687 z"
   id="path14"
   inkscape:connector-curvature="0" />

					<path
   class="st45"
   d="m 358.3135,827.3472 v -17.7545 c 0,0 29.8779,1.4702 45.9111,9.4688 v 19.8711 c -14.2041,-6.3486 -29.6631,-10.3657 -45.9111,-11.5854 z"
   id="path16"
   inkscape:connector-curvature="0" />

					<path
   class="st46"
   d="m 262.5454,932.4766 c 2.7261,3.2998 4.376,7.5322 4.376,12.1596 0,10.5811 -8.5728,19.1177 -19.1538,19.1177 -4.1963,0 -8.0342,-1.3633 -11.1909,-3.6587 26.7221,-2.188 25.9687,-27.6186 25.9687,-27.6186 z"
   id="path18"
   inkscape:connector-curvature="0" />

					<path
   class="st43"
   d="m 284.0664,882.7637 c 0,0 0.7891,25.3945 -25.9326,27.5825 -4.8067,-3.4077 -7.9273,-9.0747 -7.9273,-15.4233 0,-10.5811 8.6084,-19.1177 19.1539,-19.1177 5.9184,0 11.2265,2.6899 14.7417,6.9585 z"
   id="path20"
   inkscape:connector-curvature="0" />

					<path
   class="st46"
   d="m 284.1021,882.7637 c 2.726,3.2998 4.3759,7.5322 4.3759,12.1592 0,10.5454 -8.5722,19.1176 -19.1176,19.1176 -4.1968,0 -8.0704,-1.3629 -11.2266,-3.6943 26.7217,-2.188 25.9326,-27.5825 25.9326,-27.5825 z"
   id="path22"
   inkscape:connector-curvature="0" />

					<path
   class="st44"
   d="m 486.4702,965.6904 c 0,5.524 -0.3945,11.0117 -1.0044,16.356 h -275.539 c -0.5738,-5.3443 -1.0044,-10.832 -1.0044,-16.356 0,-76.6499 62.1596,-138.7379 138.81,-138.7379 3.5508,0 7.0659,0.1436 10.5811,0.3947 16.248,1.2197 31.707,5.2368 45.9111,11.5854 48.4575,21.6284 82.2456,70.23 82.2456,126.7578 z M 288.478,894.9229 c 0,-4.627 -1.6499,-8.8594 -4.3759,-12.1592 -3.5152,-4.2686 -8.8233,-6.9585 -14.7417,-6.9585 -10.5455,0 -19.1539,8.5366 -19.1539,19.1177 0,6.3486 3.1206,12.0156 7.9273,15.4233 3.1562,2.3315 7.0298,3.6943 11.2266,3.6943 10.5454,0 19.1176,-8.5722 19.1176,-19.1176 z m -21.5566,49.7133 c 0,-4.6274 -1.6499,-8.8598 -4.376,-12.1596 -3.5151,-4.2325 -8.8237,-6.9585 -14.7778,-6.9585 -10.5093,0 -19.0816,8.5727 -19.0816,19.1181 0,6.3843 3.1206,12.0157 7.8907,15.459 3.1567,2.2954 6.9946,3.6587 11.1909,3.6587 10.581,0 19.1538,-8.5366 19.1538,-19.1177 z"
   id="path24"
   inkscape:connector-curvature="0" />

				</g>

			</g>

		</g>

	</g>
<g
   id="g52"
   style="opacity:1;stop-opacity:1">
		<g
   id="g50">
			<g
   id="XMLID_92_">
				<g
   id="g47">
					<path
   class="st46"
   d="m 700.4775,882.7637 c -2.726,3.2998 -4.3759,7.5322 -4.3759,12.1592 0,10.5454 8.5722,19.1176 19.1537,19.1176 4.1606,0 8.0342,-1.3629 11.1904,-3.6943 -26.7572,-2.188 -25.9682,-27.5825 -25.9682,-27.5825 z"
   id="path33"
   inkscape:connector-curvature="0" />

					<path
   class="st43"
   d="m 700.4775,882.7637 c 0,0 -0.789,25.3945 25.9683,27.5825 4.7705,-3.4077 7.8911,-9.0747 7.8911,-15.4233 0,-10.5811 -8.5723,-19.1177 -19.0815,-19.1177 -5.9541,0 -11.2627,2.6899 -14.7779,6.9585 z"
   id="path35"
   inkscape:connector-curvature="0" />

					<path
   class="st44"
   d="M 626.2305,439.8999 H 580.355 v 379.1616 c 16.0688,-7.9985 45.8755,-9.4688 45.8755,-9.4688 z"
   id="path37"
   inkscape:connector-curvature="0" />

					<path
   class="st44"
   d="m 696.1016,894.9229 c 0,-4.627 1.6499,-8.8594 4.3759,-12.1592 3.5152,-4.2686 8.8238,-6.9585 14.7779,-6.9585 10.5092,0 19.0815,8.5366 19.0815,19.1177 0,6.3486 -3.1206,12.0156 -7.8911,15.4233 -3.1562,2.3315 -7.0298,3.6943 -11.1904,3.6943 -10.5816,0 -19.1538,-8.5722 -19.1538,-19.1176 z m 40.7104,30.5952 c 10.5093,0 19.0816,8.5727 19.0816,19.1181 0,6.3843 -3.1202,12.0157 -7.8907,15.459 -3.1567,2.2954 -6.9946,3.6587 -11.1909,3.6587 -10.581,0 -19.1538,-8.5366 -19.1538,-19.1177 0,-4.6274 1.6499,-8.8598 4.376,-12.1596 3.5151,-4.2325 8.8237,-6.9585 14.7778,-6.9585 z m 37.8047,56.5283 c 0.6099,-5.3443 1.0405,-10.832 1.0405,-16.356 0,-76.6499 -62.1596,-138.7379 -138.8095,-138.7379 -3.5513,0 -7.1021,0.1436 -10.6172,0.3947 -16.2124,1.2197 -31.6714,5.2368 -45.8755,11.5854 -48.4575,21.6284 -82.2095,70.23 -82.2095,126.7578 0,5.524 0.3584,11.0117 1.0044,16.356 z"
   id="path39"
   inkscape:connector-curvature="0" />

					<path
   class="st46"
   d="m 722.0342,932.4766 c -2.7261,3.2998 -4.376,7.5322 -4.376,12.1596 0,10.5811 8.5728,19.1177 19.1538,19.1177 4.1963,0 8.0342,-1.3633 11.1909,-3.6587 -26.7578,-2.188 -25.9687,-27.6186 -25.9687,-27.6186 z"
   id="path41"
   inkscape:connector-curvature="0" />

					<path
   class="st45"
   d="m 580.355,819.0615 v 19.8711 c 14.2041,-6.3486 29.6631,-10.3657 45.8755,-11.5854 v -17.7545 c 0,10e-5 -29.8067,1.4703 -45.8755,9.4688 z"
   id="path43"
   inkscape:connector-curvature="0" />

					<path
   class="st43"
   d="m 755.8936,944.6362 c 0,-10.5454 -8.5723,-19.1181 -19.0816,-19.1181 -5.9541,0 -11.2627,2.726 -14.7778,6.9585 0,0 -0.7891,25.4306 25.9688,27.6186 4.7704,-3.4433 7.8906,-9.0747 7.8906,-15.459 z"
   id="path45"
   inkscape:connector-curvature="0" />

				</g>

			</g>

		</g>

	</g>
<path
   class="st44"
   d="m 652.5151,140.0576 c 32.835,-34.1504 65.2388,-44.5469 65.2388,-44.5469 -42.2383,4.1094 -76.564,13.2129 -103.7588,23.709 -25.7236,-11.375 -53.4785,-19.0254 -82.5986,-22.125 69.3799,-56.7617 128.206,-79.1386 128.206,-79.1386 -300.5151,54.9365 -371.58,177.746 -371.58,177.746 v 0.0245 c -40.1026,48.1699 -64.2676,110.0888 -64.2676,177.6689 0,153.4854 124.437,277.8994 277.9111,277.8994 153.4873,0 277.9082,-124.414 277.9082,-277.8994 0,-97.8476 -50.6347,-183.8242 -127.0591,-233.3379 z"
   id="path54"
   inkscape:connector-curvature="0"
   style="opacity:1;stop-opacity:1" />
<g
   transform="matrix(1,0,0,-1,0,1096.1006)"
   id="g95"
   style="opacity:1;stop-opacity:1">
		<g
   id="XMLID_7_">
			<g
   id="g92">
				<path
   class="st5"
   d="m 373.584,491.2422 h 256.1704 c -5.2437,43.8828 -32.4829,81.0239 -70.3911,100.0058 -0.6763,-0.9682 -1.4253,-1.9184 -2.2837,-2.8501 -9.208,-10.103 -28.5913,-17.246 -51.3731,-18.0136 l -4.0376,4.2202 -4.0376,-4.2202 c -22.8178,0.7676 -42.2197,7.9292 -51.4091,18.0317 -0.8589,0.9136 -1.626,1.8638 -2.2837,2.832 -37.9087,-19 -65.148,-56.123 -70.3545,-100.0058 z"
   id="path86"
   inkscape:connector-curvature="0" />

				<path
   class="st47"
   d="m 446.2222,588.416 c 0.749,0.3657 23.4941,11.6924 55.4467,11.6924 31.9346,0 54.6617,-11.3267 55.4107,-11.7105 0.8584,0.9317 1.6074,1.8819 2.2837,2.8501 -17.356,8.7144 -36.959,13.6104 -57.6944,13.6104 -20.7539,0 -40.3564,-4.896 -57.7304,-13.6104 0.6577,-0.9682 1.4248,-1.9184 2.2837,-2.832 z"
   id="path88"
   inkscape:connector-curvature="0" />

				<path
   class="st48"
   d="m 446.2222,588.416 c 9.1894,-10.1025 28.5913,-17.2641 51.4091,-18.0317 l 4.0376,4.2202 4.0376,-4.2202 c 22.7818,0.7676 42.1651,7.9106 51.3731,18.0136 -0.749,0.3838 -23.4761,11.7105 -55.4107,11.7105 -31.9526,0 -54.6977,-11.3267 -55.4467,-11.6924 z"
   id="path90"
   inkscape:connector-curvature="0" />

			</g>

		</g>

	</g>

<style
   id="style10-2"
   type="text/css">
	.st0{fill:#C783B7;}
	.st1{fill:#125785;}
	.st2{fill:#8E4C87;}
	.st3{fill:#1B70B6;}
	.st4{fill:#66A0D7;}
	.st5{fill:#1E1F1D;}
	.st6{fill:#A3201B;}
	.st7{fill:#E32D28;}
	.st8{fill:url(#SVGID_1_);}
	.st9{fill:#FFFFFF;}
	.st10{fill:#D5418F;}
	.st11{fill:#E3C724;}
	.st12{fill:#A7C833;}
	.st13{fill:#E6362C;}
	.st14{fill:#C72C28;}
	.st15{fill:#E3AB28;}
	.st16{fill:#9DC42B;}
	.st17{fill:#FADF21;}
	.st18{fill:#CA9220;}
	.st19{fill:#94C128;}
	.st20{fill:#74922B;}
	.st21{fill:#59AE33;}
	.st22{fill:#499834;}
	.st23{fill:#E62A46;}
	.st24{fill:#CD163B;}
	.st25{fill:#063E51;}
	.st26{fill:#B2B1B0;}
	.st27{fill:#E62A3B;}
	.st28{fill:#CA152C;}
	.st29{fill:url(#SVGID_2_);}
	.st30{fill:url(#SVGID_3_);}
	.st31{fill:#C71B1B;}
	.st32{fill:#E52523;}
	.st33{fill:url(#SVGID_4_);}
	.st34{fill:#E43333;}
	.st35{fill:#9C1C1B;}
	.st36{fill:#C8C7C7;}
	.st37{fill:#C39E05;}
	.st38{fill:#E5B90D;}
	.st39{fill:#F1C906;}
	.st40{fill:#F7B21C;}
	.st41{fill:#566EB3;}
	.st42{fill:#4081C2;}
	.st43{fill:#F2AABB;}
	.st44{fill:#EA6379;}
	.st45{fill:#C83C5A;}
	.st46{fill:#CF4162;}
	.st47{fill:#B01C1C;}
	.st48{fill:#E52923;}
	.st49{fill:#125B95;}
	.st50{fill:#EEEDED;}
	.st51{fill:#B1B1B0;}
	.st52{fill:#98C01E;}
	.st53{fill:url(#SVGID_5_);}
	.st54{fill:#5DC2DB;}
	.st55{fill:url(#SVGID_6_);}
	.st56{fill:url(#SVGID_7_);}
	.st57{fill:#030405;}
	.st58{fill:#8666A4;}
	.st59{fill:#AE8FC2;}
	.st60{fill:#8860A3;}
	.st61{fill:#704693;}
	.st62{fill:#C8C6C7;}
	.st63{fill:#A7C835;}
	.st64{fill:#64B335;}
	.st65{fill:#174865;}
	.st66{fill:#5895C5;}
	.st67{fill:#4F2672;}
	.st68{fill:url(#SVGID_8_);}
	.st69{fill:url(#SVGID_9_);}
	.st70{fill:url(#SVGID_10_);}
	.st71{fill:url(#SVGID_11_);}
	.st72{fill:#FAB21E;}
	.st73{fill:#FBD704;}
	.st74{fill:#FAC00F;}
</style>
<g
   id="g1013"
   transform="matrix(0.42627077,0,0,0.42627077,175.39979,124.69339)"
   style="opacity:1;stop-opacity:1">
  <path
   id="rect178"
   style="fill:#000000;stroke:#000000"
   transform="rotate(45)"
   d="m 576.48639,-42.778687 h 282.85715 v 25.714285 H 576.48639 Z"
   inkscape:connector-curvature="0" />

  <path
   id="rect180"
   style="fill:#000000;stroke:#000000"
   d="m 387.37167,473.62769 h 282.85715 v 25.71428 H 387.37167 Z"
   inkscape:connector-curvature="0" />

  <path
   id="rect182"
   style="fill:#000000;stroke:#000000"
   transform="rotate(-45)"
   d="m -111.50702,705.05786 h 282.85715 v 25.71429 h -282.85715 z"
   inkscape:connector-curvature="0" />

  <path
   id="rect184"
   style="fill:#000000;stroke:#000000"
   transform="rotate(90)"
   d="m 345.05624,-541.65741 h 282.85715 v 25.71429 H 345.05624 Z"
   inkscape:connector-curvature="0" />

</g>
<g
   style="opacity:1;stop-opacity:1"
   transform="matrix(0.42627077,0,0,0.42627077,383.24432,121.80666)"
   id="g200">
  <path
   inkscape:connector-curvature="0"
   d="m 576.48639,-42.778687 h 282.85715 v 25.714285 H 576.48639 Z"
   transform="rotate(45)"
   style="fill:#000000;stroke:#000000"
   id="path192" />

  <path
   inkscape:connector-curvature="0"
   d="m 387.37167,473.62769 h 282.85715 v 25.71428 H 387.37167 Z"
   style="fill:#000000;stroke:#000000"
   id="path194" />

  <path
   inkscape:connector-curvature="0"
   d="m -111.50702,705.05786 h 282.85715 v 25.71429 h -282.85715 z"
   transform="rotate(-45)"
   style="fill:#000000;stroke:#000000"
   id="path196" />

  <path
   inkscape:connector-curvature="0"
   d="m 345.05624,-541.65741 h 282.85715 v 25.71429 H 345.05624 Z"
   transform="rotate(90)"
   style="fill:#000000;stroke:#000000"
   id="path198" />

</g>
</svg>
