<?xml version="1.0" encoding="UTF-8" standalone="no"?>
<svg
   xmlns:dc="http://purl.org/dc/elements/1.1/"
   xmlns:cc="http://creativecommons.org/ns#"
   xmlns:rdf="http://www.w3.org/1999/02/22-rdf-syntax-ns#"
   xmlns:svg="http://www.w3.org/2000/svg"
   xmlns="http://www.w3.org/2000/svg"
   xmlns:sodipodi="http://sodipodi.sourceforge.net/DTD/sodipodi-0.dtd"
   xmlns:inkscape="http://www.inkscape.org/namespaces/inkscape"
   inkscape:version="1.0beta1 (32d4812, 2019-09-19)"
   sodipodi:docname="kidaha-11.svg.2019_12_31_17_18_53.0.svg"
   xml:space="preserve"
   style="enable-background:new 0 0 1000 1000;"
   viewBox="0 0 1000 1000"
   y="0px"
   x="0px"
   id="monster"
   version="1.1"><metadata
   id="metadata174">
  <rdf:RDF>
    <cc:Work
   rdf:about="">
      <dc:format>image/svg+xml</dc:format>

      <dc:type
   rdf:resource="http://purl.org/dc/dcmitype/StillImage" />

    </cc:Work>

  </rdf:RDF>

</metadata>

<defs
   id="defs172">
	

	

	

	

</defs>

<sodipodi:namedview
   inkscape:current-layer="monster"
   inkscape:window-maximized="0"
   inkscape:window-y="88"
   inkscape:window-x="815"
   inkscape:cy="560"
   inkscape:cx="400"
   inkscape:zoom="0.35"
   showgrid="false"
   id="namedview170"
   inkscape:window-height="1209"
   inkscape:window-width="1600"
   inkscape:pageshadow="2"
   inkscape:pageopacity="0"
   guidetolerance="10"
   gridtolerance="10"
   objecttolerance="10"
   borderopacity="1"
   inkscape:document-rotation="0"
   bordercolor="#666666"
   pagecolor="#ffffff" />


<style
   id="style124"
   type="text/css">
	.st0{fill:#C783B7;}
	.st1{fill:#125785;}
	.st2{fill:#8E4C87;}
	.st3{fill:#1B70B6;}
	.st4{fill:#66A0D7;}
	.st5{fill:#1E1F1D;}
	.st6{fill:#A3201B;}
	.st7{fill:#E32D28;}
	.st8{fill:url(#SVGID_1_);}
	.st9{fill:#FFFFFF;}
	.st10{fill:#D5418F;}
	.st11{fill:#E3C724;}
	.st12{fill:#A7C833;}
	.st13{fill:#E6362C;}
	.st14{fill:#C72C28;}
	.st15{fill:#E3AB28;}
	.st16{fill:#9DC42B;}
	.st17{fill:#FADF21;}
	.st18{fill:#CA9220;}
	.st19{fill:#94C128;}
	.st20{fill:#74922B;}
	.st21{fill:#59AE33;}
	.st22{fill:#499834;}
	.st23{fill:#E62A46;}
	.st24{fill:#CD163B;}
	.st25{fill:#063E51;}
	.st26{fill:#B2B1B0;}
	.st27{fill:#E62A3B;}
	.st28{fill:#CA152C;}
	.st29{fill:url(#SVGID_2_);}
	.st30{fill:url(#SVGID_3_);}
	.st31{fill:#C71B1B;}
	.st32{fill:#E52523;}
	.st33{fill:url(#SVGID_4_);}
	.st34{fill:#E43333;}
	.st35{fill:#9C1C1B;}
	.st36{fill:#C8C7C7;}
	.st37{fill:#C39E05;}
	.st38{fill:#E5B90D;}
	.st39{fill:#F1C906;}
	.st40{fill:#F7B21C;}
	.st41{fill:#566EB3;}
	.st42{fill:#4081C2;}
	.st43{fill:#F2AABB;}
	.st44{fill:#EA6379;}
	.st45{fill:#C83C5A;}
	.st46{fill:#CF4162;}
	.st47{fill:#B01C1C;}
	.st48{fill:#E52923;}
	.st49{fill:#125B95;}
	.st50{fill:#EEEDED;}
	.st51{fill:#B1B1B0;}
	.st52{fill:#98C01E;}
	.st53{fill:url(#SVGID_5_);}
	.st54{fill:#5DC2DB;}
	.st55{fill:url(#SVGID_6_);}
	.st56{fill:url(#SVGID_7_);}
	.st57{fill:#030405;}
	.st58{fill:#8666A4;}
	.st59{fill:#AE8FC2;}
	.st60{fill:#8860A3;}
	.st61{fill:#704693;}
	.st62{fill:#C8C6C7;}
	.st63{fill:#A7C835;}
	.st64{fill:#64B335;}
	.st65{fill:#174865;}
	.st66{fill:#5895C5;}
	.st67{fill:#4F2672;}
	.st68{fill:url(#SVGID_8_);}
	.st69{fill:url(#SVGID_9_);}
	.st70{fill:url(#SVGID_10_);}
	.st71{fill:url(#SVGID_11_);}
	.st72{fill:#FAB21E;}
	.st73{fill:#FBD704;}
	.st74{fill:#FAC00F;}
</style>


<g
   id="XMLID_57_"
   style="opacity:1;stop-opacity:1">
		<g
   id="g130">
			<path
   class="st42"
   d="m 604.0659,95.9307 26.438,-18.0371 6.2378,-4.2881 4.7314,-3.2823 9.4048,-6.5859 19.6402,-13.6728 28.7744,-19.543 16.6665,14.2519 8.4971,7.1836 3.9975,3.419 2.8389,2.3359 22.5176,18.6944 22.5756,18.7128 5.6197,4.6543 2.8969,2.3946 4.5381,3.9013 18.4815,15.7969 -3.4761,20.5479 -1.6802,10.1005 -0.9463,6.2374 -3.7851,24.9892 -3.7656,24.9902 -1.8735,12.4942 -3.5919,21.0312 -11.6836,10.8145 -2.916,2.7031 -1.6415,1.5449 -3.2446,3.1094 -12.958,12.3789 -25.9361,24.7969 -51.8715,49.5537 c -5.3687,5.5811 -11.2012,11.1816 -17.4195,16.6856 -28.0215,24.6611 -56.8926,9.5791 -59.0942,-13.9434 l 145.9974,-121.0274 33.9502,-92.1171 -88.4096,-77.4991 -67.8423,41.7715 27.1138,63.5947 h 0.019 c -0.2896,3.9395 -1.4673,6.6426 -3.5532,7.4932 -5.7549,2.3359 -16.2217,-9.9267 -23.4058,-27.4043 l -4.4222,-9.7139 -2.2984,-5.0595 -2.9547,-6.6621 z"
   id="path126"
   inkscape:connector-curvature="0" />


			<path
   class="st49"
   d="m 648.522,99.3291 -12.3018,6.7402 4.0361,12.1084 1.0816,3.1866 1.7187,4.789 3.6499,10.0235 c 4.5381,11.0849 6.6626,21.6289 6.1602,28.4462 h -0.019 l -27.1138,-63.5947 67.8423,-41.7715 88.4096,77.4991 -33.9502,92.1171 -145.9975,121.0274 c -1.0044,-10.7559 3.5727,-23.2705 16.3765,-34.5674 6.2377,-5.4658 12.5141,-10.5449 18.7133,-15.1601 l 55.7144,-45.1895 27.8672,-22.6338 13.9238,-11.3164 3.4761,-2.8389 1.7573,-1.3906 c 0.1934,-0.1162 0.2705,-0.1738 0.4253,-0.2705 l 1.7378,-1.043 0.5019,-1.2939 0.2705,-0.6377 0.1353,-0.3467 0.3477,-1.4678 2.8774,-12.2636 5.7935,-24.6221 5.7934,-24.6035 1.4678,-6.1416 c 0.1352,-0.6563 0.1352,-0.5791 0.1933,-0.8106 l 0.1739,-0.4834 0.3086,-1.0039 1.352,-4.2675 -3.3022,-3.7657 -0.8882,-1.0049 -2.5303,-2.4716 -5.2139,-5.1182 -20.9921,-20.4512 -20.9341,-20.4511 -2.6265,-2.5879 -0.5601,-0.5596 -0.2701,-0.3096 -0.5991,-0.5986 -2.3945,-2.5488 -5.0405,-5.3682 -9.9648,5.252 c -0.5215,0.29 -2.588,1.5068 -4.1714,2.414 l -4.9438,2.916 -9.9453,5.794 -9.9458,5.8125 -4.9439,2.8974 -1.2554,0.753 -0.7338,0.3857 z"
   id="path128"
   inkscape:connector-curvature="0" />


		</g>


	</g>
<g
   id="XMLID_55_"
   style="opacity:1;stop-opacity:1">
		<g
   id="g137">
			<path
   class="st42"
   d="M 344.6641,349.9004 198.6855,228.873 164.7354,136.7559 253.145,59.2568 320.9688,101.0283 293.874,164.623 h -0.0386 c 0.2896,3.959 1.4678,6.6426 3.5728,7.4932 5.7739,2.3359 16.2026,-9.9267 23.4058,-27.4043 l 4.4033,-9.7139 2.3174,-5.0595 2.9741,-6.6621 12.1665,-27.3457 -26.4766,-18.0371 -6.2187,-4.2881 -4.7315,-3.2823 -9.4238,-6.5859 -19.6406,-13.6728 -28.7744,-19.543 -16.647,14.2519 -8.5166,7.1836 -3.9976,3.419 -2.8193,2.3359 -22.5371,18.6944 -22.5176,18.7128 -5.6582,4.6543 -2.916,2.3946 -4.5386,3.9013 -18.4619,15.7969 3.4565,20.5479 1.6802,10.1005 0.9658,6.2374 3.7657,24.9892 3.7661,24.9902 1.8921,12.4942 3.5342,21.0312 11.7226,10.8145 2.9351,2.7031 1.6416,1.5449 3.2251,3.1094 12.9585,12.3789 25.9355,24.7969 51.8911,49.5537 c 5.3491,5.5811 11.1817,11.1816 17.4385,16.6856 28.0215,24.6611 56.9121,9.5791 59.0752,-13.9434 z"
   id="path133"
   inkscape:connector-curvature="0" />


			<path
   class="st49"
   d="m 293.874,164.623 27.0948,-63.5947 -67.8238,-41.7715 -88.4096,77.4991 33.9501,92.1171 145.9786,121.0274 h 0.0195 c 1.0039,-10.7559 -3.5923,-23.2705 -16.3765,-34.5674 -6.2573,-5.4658 -12.5337,-10.5449 -18.7324,-15.1601 l -55.7148,-45.1895 -27.8477,-22.6338 -13.9434,-11.3164 -3.476,-2.8389 -1.7574,-1.3906 c -0.1738,-0.1162 -0.2705,-0.1738 -0.4057,-0.2705 l -1.7188,-1.043 -0.5405,-1.2939 -0.2705,-0.6377 -0.1157,-0.3467 -0.3286,-1.4678 -2.916,-12.2636 -5.7935,-24.6221 -5.7935,-24.6035 -1.4482,-6.1416 c -0.1353,-0.6563 -0.1353,-0.5791 -0.2124,-0.8106 l -0.1548,-0.4834 -0.3281,-1.0039 -1.3325,-4.2675 3.2827,-3.7657 0.8886,-1.0049 2.5298,-2.4716 5.2334,-5.1182 20.9727,-20.4512 20.9536,-20.4511 2.6069,-2.5879 0.5796,-0.5596 0.27,-0.3096 0.5796,-0.5986 2.4141,-2.5488 5.04,-5.3682 9.9458,5.252 c 0.5215,0.29 2.607,1.5068 4.1714,2.414 l 4.9824,2.916 9.9263,5.794 9.9458,5.8125 4.9439,2.8974 1.2358,0.753 0.7339,0.3857 1.4678,0.792 12.2822,6.7402 -4.0171,12.1084 -1.062,3.1866 -1.7188,4.789 -3.6499,10.0235 c -4.5576,11.0849 -6.6821,21.6289 -6.1797,28.4462 z"
   id="path135"
   inkscape:connector-curvature="0" />


		</g>


	</g>
<g
   id="XMLID_53_"
   style="opacity:1;stop-opacity:1">
		<g
   id="g144">
			<path
   class="st42"
   d="m 475.9619,215.0947 c 241.9663,0 326.1499,91.8116 309.7505,274.7657 -0.2979,115.0937 -28.2764,241.9414 -32.873,301.7744 -2.0625,27.0088 5.4912,43.7568 18.8344,53.6454 -51.2114,-23.2071 -34.4887,-68.5293 -20.7729,-332.834 16.3003,-313.6514 -313.8008,-296.333 -313.8008,-296.333 v -0.0244 c 12.4238,-0.6464 25.3691,-0.9941 38.8618,-0.9941 z"
   id="path140"
   inkscape:connector-curvature="0" />


			<path
   class="st4"
   d="M 203.0601,968.8477 C 54.8188,976.998 -44.6216,903.6729 79.2441,891.4473 c 123.816,-12.2003 63.7837,-248.4766 50.6397,-448.1026 0,0 -6.585,-65.25 38.4888,-118.3984 0.0996,-0.1494 58.5908,-97.9502 268.7275,-108.8574 v 0.0244 c 0,0 330.1011,-17.3184 313.8008,296.333 -13.7158,264.3047 -30.4385,309.6269 20.7729,332.834 0.0249,0.0255 0.0249,0 0.0249,0 9.5415,7.1064 22.0645,10.6845 36.1778,11.9765 h 0.0249 c 55.435,5.1436 135.2954,-24.7724 155.0991,-14.6601 31.9043,16.251 18.7602,126.873 -151.9932,126.873 -170.7529,0 -178.2568,-99.0683 -178.2568,-99.0683 0,0 -24.4004,99.0683 -133.2334,99.0683 -108.8325,0 -95.6631,-110.622 -95.6631,-110.622 0,0 -52.5527,101.8505 -200.7939,110 z"
   id="path142"
   inkscape:connector-curvature="0" />


		</g>


	</g>


<style
   id="style10"
   type="text/css">
	.st0{fill:#C783B7;}
	.st1{fill:#125785;}
	.st2{fill:#8E4C87;}
	.st3{fill:#1B70B6;}
	.st4{fill:#66A0D7;}
	.st5{fill:#1E1F1D;}
	.st6{fill:#A3201B;}
	.st7{fill:#E32D28;}
	.st8{fill:url(#SVGID_1_);}
	.st9{fill:#FFFFFF;}
	.st10{fill:#D5418F;}
	.st11{fill:#E3C724;}
	.st12{fill:#A7C833;}
	.st13{fill:#E6362C;}
	.st14{fill:#C72C28;}
	.st15{fill:#E3AB28;}
	.st16{fill:#9DC42B;}
	.st17{fill:#FADF21;}
	.st18{fill:#CA9220;}
	.st19{fill:#94C128;}
	.st20{fill:#74922B;}
	.st21{fill:#59AE33;}
	.st22{fill:#499834;}
	.st23{fill:#E62A46;}
	.st24{fill:#CD163B;}
	.st25{fill:#063E51;}
	.st26{fill:#B2B1B0;}
	.st27{fill:#E62A3B;}
	.st28{fill:#CA152C;}
	.st29{fill:url(#SVGID_2_);}
	.st30{fill:url(#SVGID_3_);}
	.st31{fill:#C71B1B;}
	.st32{fill:#E52523;}
	.st33{fill:url(#SVGID_4_);}
	.st34{fill:#E43333;}
	.st35{fill:#9C1C1B;}
	.st36{fill:#C8C7C7;}
	.st37{fill:#C39E05;}
	.st38{fill:#E5B90D;}
	.st39{fill:#F1C906;}
	.st40{fill:#F7B21C;}
	.st41{fill:#566EB3;}
	.st42{fill:#4081C2;}
	.st43{fill:#F2AABB;}
	.st44{fill:#EA6379;}
	.st45{fill:#C83C5A;}
	.st46{fill:#CF4162;}
	.st47{fill:#B01C1C;}
	.st48{fill:#E52923;}
	.st49{fill:#125B95;}
	.st50{fill:#EEEDED;}
	.st51{fill:#B1B1B0;}
	.st52{fill:#98C01E;}
	.st53{fill:url(#SVGID_5_);}
	.st54{fill:#5DC2DB;}
	.st55{fill:url(#SVGID_6_);}
	.st56{fill:url(#SVGID_7_);}
	.st57{fill:#030405;}
	.st58{fill:#8666A4;}
	.st59{fill:#AE8FC2;}
	.st60{fill:#8860A3;}
	.st61{fill:#704693;}
	.st62{fill:#C8C6C7;}
	.st63{fill:#A7C835;}
	.st64{fill:#64B335;}
	.st65{fill:#174865;}
	.st66{fill:#5895C5;}
	.st67{fill:#4F2672;}
	.st68{fill:url(#SVGID_8_);}
	.st69{fill:url(#SVGID_9_);}
	.st70{fill:url(#SVGID_10_);}
	.st71{fill:url(#SVGID_11_);}
	.st72{fill:#FAB21E;}
	.st73{fill:#FBD704;}
	.st74{fill:#FAC00F;}
</style>

<g
   transform="translate(-63.591619,91.472179)"
   id="g580">
  <g
   transform="translate(-11.428571,-137.14286)"
   id="g1013">
  <path
   inkscape:connector-curvature="0"
   d="m 576.48639,-42.778687 h 282.85715 v 25.714285 H 576.48639 Z"
   transform="rotate(45)"
   style="fill:#000000;stroke:#000000"
   id="rect178" />


  <path
   inkscape:connector-curvature="0"
   d="m 387.37167,473.62769 h 282.85715 v 25.71428 H 387.37167 Z"
   style="fill:#000000;stroke:#000000"
   id="rect180" />


  <path
   inkscape:connector-curvature="0"
   d="m -111.50702,705.05786 h 282.85715 v 25.71429 h -282.85715 z"
   transform="rotate(-45)"
   style="fill:#000000;stroke:#000000"
   id="rect182" />


  <path
   inkscape:connector-curvature="0"
   d="m 345.05624,-541.65741 h 282.85715 v 25.71429 H 345.05624 Z"
   transform="rotate(90)"
   style="fill:#000000;stroke:#000000"
   id="rect184" />


</g>

  <g
   id="g1089">
  <g
   id="g1051">
    <path
   sodipodi:nodetypes="csssssc"
   inkscape:connector-curvature="0"
   id="path1019"
   d="m 342.55837,645.71429 c 0,0 54.59728,-48.27706 85.3128,-42.85715 18.73883,3.30657 23.69941,42.33642 42.6564,42.85715 37.4781,1.02949 50.34561,-81.10764 87.82199,-80 20.1364,0.59515 25.22264,42.48842 45.1656,45.71428 19.26079,3.11551 33.25353,-27.71608 52.6932,-28.57143 11.64101,-0.51221 32.6196,14.28572 32.6196,14.28572"
   style="fill:none;stroke:#000000;stroke-width:12;stroke-linecap:butt;stroke-linejoin:miter;stroke-miterlimit:4;stroke-dasharray:none;stroke-opacity:1" />


    <g
   style="fill:#3465a4;stroke-width:12;stroke-miterlimit:4;stroke-dasharray:none"
   transform="matrix(1,0,0.14235912,1,-82.244748,1.428578e-8)"
   id="g1027">
      <path
   style="fill:#3465a4;stroke:#000000;stroke-width:12;stroke-linecap:butt;stroke-linejoin:miter;stroke-miterlimit:4;stroke-dasharray:none;stroke-opacity:1"
   d="m 588.39834,607.56128 c 0,0 -22.24,65.84938 -11.25548,95.29586 6.60717,17.712 21.09636,31.27915 39.99999,31.42858 24.28029,0.19193 35.71714,-11.28969 45.4302,-33.76578 15.64492,-36.20246 -4.55103,-118.67295 -12.35745,-118.67295 -27.83588,14.2613 -45.84155,20.41164 -61.81726,25.71429 z"
   id="path1021"
   inkscape:connector-curvature="0"
   sodipodi:nodetypes="cssscc" />


      <path
   sodipodi:nodetypes="cc"
   style="fill:#3465a4;stroke:#000000;stroke-width:12;stroke-linecap:butt;stroke-linejoin:miter;stroke-miterlimit:4;stroke-dasharray:none;stroke-opacity:1"
   d="m 625.08028,598.15301 c 17.66074,29.14909 -0.94586,72.44955 -8.70843,99.01958"
   id="path1023"
   inkscape:connector-curvature="0" />


    </g>


  </g>


</g>

</g>

</svg>
