<?xml version="1.0" encoding="UTF-8" standalone="no"?>
<svg
   xmlns:dc="http://purl.org/dc/elements/1.1/"
   xmlns:cc="http://creativecommons.org/ns#"
   xmlns:rdf="http://www.w3.org/1999/02/22-rdf-syntax-ns#"
   xmlns:svg="http://www.w3.org/2000/svg"
   xmlns="http://www.w3.org/2000/svg"
   xmlns:sodipodi="http://sodipodi.sourceforge.net/DTD/sodipodi-0.dtd"
   xmlns:inkscape="http://www.inkscape.org/namespaces/inkscape"
   inkscape:version="1.0beta1 (32d4812, 2019-09-19)"
   sodipodi:docname="kidaha-03-dead.svg"
   xml:space="preserve"
   style="enable-background:new 0 0 1000 1000;"
   viewBox="0 0 1000 1000"
   y="0px"
   x="0px"
   id="monster"
   version="1.1"><metadata
   id="metadata96">
  <rdf:RDF>
    <cc:Work
       rdf:about="">
      <dc:format>image/svg+xml</dc:format>
      <dc:type
         rdf:resource="http://purl.org/dc/dcmitype/StillImage" />
      <dc:title></dc:title>
    </cc:Work>
  </rdf:RDF>
</metadata>
<defs
   id="defs94">
	
	
	
	
	
	

  

    
    
  </defs>
<sodipodi:namedview
   inkscape:current-layer="monster"
   inkscape:window-maximized="0"
   inkscape:window-y="23"
   inkscape:window-x="0"
   inkscape:cy="560"
   inkscape:cx="400"
   inkscape:zoom="0.35"
   showgrid="false"
   id="namedview92"
   inkscape:window-height="1209"
   inkscape:window-width="1600"
   inkscape:pageshadow="2"
   inkscape:pageopacity="0"
   guidetolerance="10"
   gridtolerance="10"
   objecttolerance="10"
   borderopacity="1"
   inkscape:document-rotation="0"
   bordercolor="#666666"
   pagecolor="#ffffff" />

<style
   id="style10"
   type="text/css">
	.st0{fill:#C783B7;}
	.st1{fill:#125785;}
	.st2{fill:#8E4C87;}
	.st3{fill:#1B70B6;}
	.st4{fill:#66A0D7;}
	.st5{fill:#1E1F1D;}
	.st6{fill:#A3201B;}
	.st7{fill:#E32D28;}
	.st8{fill:url(#SVGID_1_);}
	.st9{fill:#FFFFFF;}
	.st10{fill:#D5418F;}
	.st11{fill:#E3C724;}
	.st12{fill:#A7C833;}
	.st13{fill:#E6362C;}
	.st14{fill:#C72C28;}
	.st15{fill:#E3AB28;}
	.st16{fill:#9DC42B;}
	.st17{fill:#FADF21;}
	.st18{fill:#CA9220;}
	.st19{fill:#94C128;}
	.st20{fill:#74922B;}
	.st21{fill:#59AE33;}
	.st22{fill:#499834;}
	.st23{fill:#E62A46;}
	.st24{fill:#CD163B;}
	.st25{fill:#063E51;}
	.st26{fill:#B2B1B0;}
	.st27{fill:#E62A3B;}
	.st28{fill:#CA152C;}
	.st29{fill:url(#SVGID_2_);}
	.st30{fill:url(#SVGID_3_);}
	.st31{fill:#C71B1B;}
	.st32{fill:#E52523;}
	.st33{fill:url(#SVGID_4_);}
	.st34{fill:#E43333;}
	.st35{fill:#9C1C1B;}
	.st36{fill:#C8C7C7;}
	.st37{fill:#C39E05;}
	.st38{fill:#E5B90D;}
	.st39{fill:#F1C906;}
	.st40{fill:#F7B21C;}
	.st41{fill:#566EB3;}
	.st42{fill:#4081C2;}
	.st43{fill:#F2AABB;}
	.st44{fill:#EA6379;}
	.st45{fill:#C83C5A;}
	.st46{fill:#CF4162;}
	.st47{fill:#B01C1C;}
	.st48{fill:#E52923;}
	.st49{fill:#125B95;}
	.st50{fill:#EEEDED;}
	.st51{fill:#B1B1B0;}
	.st52{fill:#98C01E;}
	.st53{fill:url(#SVGID_5_);}
	.st54{fill:#5DC2DB;}
	.st55{fill:url(#SVGID_6_);}
	.st56{fill:url(#SVGID_7_);}
	.st57{fill:#030405;}
	.st58{fill:#8666A4;}
	.st59{fill:#AE8FC2;}
	.st60{fill:#8860A3;}
	.st61{fill:#704693;}
	.st62{fill:#C8C6C7;}
	.st63{fill:#A7C835;}
	.st64{fill:#64B335;}
	.st65{fill:#174865;}
	.st66{fill:#5895C5;}
	.st67{fill:#4F2672;}
	.st68{fill:url(#SVGID_8_);}
	.st69{fill:url(#SVGID_9_);}
	.st70{fill:url(#SVGID_10_);}
	.st71{fill:url(#SVGID_11_);}
	.st72{fill:#FAB21E;}
	.st73{fill:#FBD704;}
	.st74{fill:#FAC00F;}
</style>

<g
   id="XMLID_313_"
   style="opacity:1;stop-opacity:1">
		<g
   id="g16">
			<path
   class="st19"
   d="m 685.165,90.3765 25.751,60.497 h 0.0186 c -0.2754,3.7261 -1.3946,6.2774 -3.377,7.085 -5.4512,2.2393 -15.418,-9.416 -22.2275,-26.0454 l -4.2403,-9.2144 -2.1845,-4.8086 -2.7891,-6.351 -11.5635,-25.9903 25.127,-17.1245 5.9287,-4.0752 4.5156,-3.1387 8.9014,-6.2402 18.6855,-12.9951 27.3487,-18.5933 15.8214,13.5274 8.0947,6.8647 3.7998,3.23 2.6973,2.2026 21.4384,17.7857 21.4024,17.7861 5.3594,4.4414 2.7529,2.2764 4.3135,3.7261 17.5468,15.0136 -3.2851,19.4932 -1.6153,9.5991 -0.8808,5.9473 -3.5977,23.751 -3.5977,23.7509 -1.7989,11.8384 -3.3593,20.0254 -11.1221,10.2603 -2.7539,2.6064 -1.5781,1.4317 -3.0656,2.9731 -12.3525,11.7656 -24.6318,23.5674 -49.3008,47.1162 c -5.1211,5.2495 -10.6641,10.6094 -16.5567,15.8218 -26.6504,23.4575 -54.1279,9.104 -56.165,-13.2886 l 138.7803,-114.9741 32.249,-87.5698 -84.0459,-73.6392 z"
   id="path12"
   inkscape:connector-curvature="0" />

			<path
   class="st20"
   d="m 710.916,150.8735 -25.751,-60.497 64.4434,-39.6646 84.0459,73.6392 -32.249,87.5698 L 662.625,326.895 c -0.9541,-10.2051 3.3955,-22.0991 15.5469,-32.8183 5.9287,-5.1758 11.9306,-10.0035 17.7851,-14.3902 l 52.9532,-42.9863 26.5234,-21.4751 13.2148,-10.7378 3.3037,-2.6977 1.6885,-1.3404 c 0.1475,-0.0918 0.2393,-0.1831 0.3858,-0.2749 l 1.6699,-0.9731 0.4414,-1.2115 0.2744,-0.642 0.1475,-0.3492 0.2568,-1.3579 2.7715,-11.6919 5.5068,-23.3842 5.5244,-23.4019 1.377,-5.8188 c 0.165,-0.6241 0.165,-0.5323 0.2197,-0.7525 l 0.1289,-0.4585 0.293,-0.9731 1.2852,-4.0381 -3.1202,-3.5972 -0.8622,-0.9365 -2.3681,-2.3677 -5.0108,-4.8457 -19.8966,-19.4189 -19.9336,-19.4746 -2.4775,-2.4229 -0.5508,-0.5322 -0.2207,-0.312 -0.6054,-0.5503 -2.2579,-2.46 -4.8271,-5.0659 -9.4336,4.9741 c -0.4961,0.2573 -2.4785,1.4321 -3.9648,2.2764 l -4.6807,2.7895 -9.4531,5.4698 -9.4522,5.5434 -4.7353,2.7529 -1.1934,0.6978 -0.6973,0.3667 -1.3584,0.771 -11.7099,6.4429 3.8174,11.4716 1.0459,3.0469 1.6338,4.5332 3.4511,9.5445 c 4.3495,10.5542 6.3692,20.5756 5.873,27.0551 z"
   id="path14"
   inkscape:connector-curvature="0" />

		</g>

	</g>
<g
   id="XMLID_312_"
   style="opacity:1;stop-opacity:1">
		<g
   id="g23">
			<path
   class="st20"
   d="m 198.6191,264.0039 138.7618,114.9922 h 0.018 c 0.9546,-10.2056 -3.3955,-22.0811 -15.5464,-32.8003 -5.9653,-5.249 -11.8935,-10.0395 -17.8222,-14.4268 l -52.9717,-42.9863 -26.4673,-21.4936 -13.2158,-10.7193 -3.3218,-2.6977 -1.689,-1.3399 c -0.1469,-0.1289 -0.2202,-0.1836 -0.3671,-0.2754 l -1.6885,-0.9731 -0.4771,-1.2114 -0.2202,-0.6241 -0.147,-0.33 -0.2939,-1.4136 -2.7529,-11.6553 -5.5064,-23.4018 -5.4883,-23.3843 -1.413,-5.8364 c -0.147,-0.6246 -0.147,-0.5694 -0.2022,-0.753 l -0.165,-0.4585 -0.2754,-0.9731 -1.3213,-4.0381 3.1567,-3.5791 0.8443,-0.9912 2.4047,-2.3311 4.9742,-4.8452 19.9331,-19.438 19.9145,-19.456 2.46,-2.4229 0.5688,-0.5322 0.2388,-0.312 0.5689,-0.5874 2.2578,-2.4229 4.8086,-5.0654 9.4526,4.9741 c 0.5322,0.2383 2.5146,1.4317 4.0015,2.294 l 4.7172,2.7719 9.4161,5.5064 9.434,5.5244 4.7173,2.7349 1.2115,0.7158 0.6606,0.3857 1.4136,0.7339 11.6367,6.4429 -3.7627,11.4717 -1.0464,3.0468 -1.6333,4.5332 -3.4507,9.5445 c -4.332,10.5356 -6.3691,20.539 -5.8735,27.0185 l 25.7881,-60.4604 -64.4615,-39.6831 -84.0463,73.6577 z"
   id="path19"
   inkscape:connector-curvature="0" />

			<path
   class="st19"
   d="m 337.3809,378.9961 -138.7618,-114.9922 -32.2675,-87.5703 84.0463,-73.6577 64.4615,39.6831 -25.7881,60.4604 c 0.2754,3.7627 1.395,6.314 3.3955,7.1397 5.4697,2.2392 15.3994,-9.4527 22.2275,-26.0454 l 4.2032,-9.2324 2.2212,-4.8086 2.7895,-6.3511 11.5454,-25.9903 -25.1279,-17.1245 -5.9282,-4.0747 -4.4605,-3.1386 -8.9936,-6.2774 -18.667,-12.9585 -27.3116,-18.5932 -15.8217,13.5087 -8.1128,6.8833 -3.7813,3.2305 -2.6977,2.2393 -21.4019,17.749 -21.4385,17.7856 -5.3779,4.4419 -2.7529,2.294 -4.3135,3.708 -17.5654,15.0141 3.2856,19.4927 1.6153,9.5991 0.9541,5.9654 3.5424,23.7329 3.5611,23.751 1.7988,11.8755 3.3769,20.0063 11.1231,10.2603 2.79,2.5512 1.5786,1.4688 3.0469,2.9731 12.3345,11.7837 24.687,23.5308 49.2637,47.0981 c 5.103,5.3233 10.646,10.6094 16.5928,15.8218 26.6328,23.4756 54.0913,9.1226 56.1469,-13.2334 z"
   id="path21"
   inkscape:connector-curvature="0" />

		</g>

	</g>
<g
   id="g46"
   style="opacity:1;stop-opacity:1">
		<path
   class="st21"
   d="m 423.8325,278.4678 c 0,0 422.7124,-124.1836 348.689,217.3286 -74.041,341.5371 -109.8555,425.1055 -19.1016,422.7329 90.7442,-2.3975 81.1914,42.9814 -66.8847,57.313 -148.0645,14.3286 -16.7071,-181.5098 -150.4512,-171.9424 -133.7544,9.5562 -174.3403,54.9072 -174.3403,105.0689 0,50.1635 -7.1783,67.6406 -66.8804,67.6406 -59.7066,0 -126.583,-3.1529 -59.7066,-43.7505 66.8731,-40.5982 71.6475,-52.5425 45.3692,-207.793 C 254.2573,569.8418 99.0288,362.0552 423.8325,278.4678 Z"
   id="path26"
   inkscape:connector-curvature="0" />

		<path
   class="st22"
   d="m 735.8496,600.9644 c -4.3906,20.7944 -15.1973,40.1469 -28.6074,30.2338 -21.8477,-16.1533 5.0215,-83.6274 25.2578,-68.4345 6.2949,4.7114 6.7852,21.9092 3.3496,38.2007 z"
   id="path28"
   inkscape:connector-curvature="0" />

		<path
   class="st22"
   d="m 751.9395,526.1812 c -2.2012,10.4101 -7.6153,20.0815 -14.3184,15.121 -10.9336,-8.0839 2.5098,-41.8418 12.6406,-34.2446 3.1504,2.3545 3.3965,10.9673 1.6778,19.1236 z"
   id="path30"
   inkscape:connector-curvature="0" />

		<path
   class="st22"
   d="m 703.7539,543.6401 c -1.1797,5.5791 -4.084,10.7784 -7.6816,8.1133 -5.8615,-4.3183 1.3515,-22.4551 6.7812,-18.3584 1.6973,1.2564 1.8242,5.8726 0.9004,10.2451 z"
   id="path32"
   inkscape:connector-curvature="0" />

		<path
   class="st22"
   d="m 682.7773,585.3438 c -1.8496,8.726 -6.375,16.8496 -12.0019,12.6704 -9.168,-6.7647 2.1035,-35.0669 10.5879,-28.7007 2.6465,1.98 2.8476,9.1841 1.414,16.0303 z"
   id="path34"
   inkscape:connector-curvature="0" />

		<path
   class="st22"
   d="m 686.5742,617.1611 c -0.7441,3.4981 -2.5586,6.7456 -4.8086,5.085 -3.6797,-2.7163 0.8477,-14.0737 4.2422,-11.5093 1.0723,0.7984 1.1367,3.6821 0.5664,6.4243 z"
   id="path36"
   inkscape:connector-curvature="0" />

		<path
   class="st22"
   d="m 670.2754,543.2778 c -0.7441,3.4854 -2.5645,6.7344 -4.8145,5.0714 -3.6816,-2.7163 0.8399,-14.06 4.2422,-11.5093 1.0664,0.7983 1.1407,3.683 0.5723,6.4379 z"
   id="path38"
   inkscape:connector-curvature="0" />

		<path
   class="st22"
   d="m 764.0625,486.3862 c -1.2012,5.6983 -4.1582,10.981 -7.8223,8.2691 -5.9726,-4.4082 1.3789,-22.8614 6.9005,-18.689 1.7187,1.2778 1.8554,5.979 0.9218,10.4199 z"
   id="path40"
   inkscape:connector-curvature="0" />

		<path
   class="st22"
   d="m 727.3555,497.3022 c -2.2365,10.6065 -7.7383,20.4561 -14.5625,15.4024 -11.1486,-8.229 2.5566,-42.6231 12.8535,-34.8901 3.2168,2.4287 3.459,11.1782 1.709,19.4877 z"
   id="path42"
   inkscape:connector-curvature="0" />

		<path
   class="st22"
   d="m 723.2754,660.5498 c -1.207,5.686 -4.1641,10.9683 -7.8242,8.2666 -5.9706,-4.4185 1.375,-22.8584 6.9023,-18.707 1.7305,1.2954 1.8555,5.9936 0.9219,10.4404 z"
   id="path44"
   inkscape:connector-curvature="0" />

	</g>

<style
   id="style10-8"
   type="text/css">
	.st0{fill:#C783B7;}
	.st1{fill:#125785;}
	.st2{fill:#8E4C87;}
	.st3{fill:#1B70B6;}
	.st4{fill:#66A0D7;}
	.st5{fill:#1E1F1D;}
	.st6{fill:#A3201B;}
	.st7{fill:#E32D28;}
	.st8{fill:url(#SVGID_1_);}
	.st9{fill:#FFFFFF;}
	.st10{fill:#D5418F;}
	.st11{fill:#E3C724;}
	.st12{fill:#A7C833;}
	.st13{fill:#E6362C;}
	.st14{fill:#C72C28;}
	.st15{fill:#E3AB28;}
	.st16{fill:#9DC42B;}
	.st17{fill:#FADF21;}
	.st18{fill:#CA9220;}
	.st19{fill:#94C128;}
	.st20{fill:#74922B;}
	.st21{fill:#59AE33;}
	.st22{fill:#499834;}
	.st23{fill:#E62A46;}
	.st24{fill:#CD163B;}
	.st25{fill:#063E51;}
	.st26{fill:#B2B1B0;}
	.st27{fill:#E62A3B;}
	.st28{fill:#CA152C;}
	.st29{fill:url(#SVGID_2_);}
	.st30{fill:url(#SVGID_3_);}
	.st31{fill:#C71B1B;}
	.st32{fill:#E52523;}
	.st33{fill:url(#SVGID_4_);}
	.st34{fill:#E43333;}
	.st35{fill:#9C1C1B;}
	.st36{fill:#C8C7C7;}
	.st37{fill:#C39E05;}
	.st38{fill:#E5B90D;}
	.st39{fill:#F1C906;}
	.st40{fill:#F7B21C;}
	.st41{fill:#566EB3;}
	.st42{fill:#4081C2;}
	.st43{fill:#F2AABB;}
	.st44{fill:#EA6379;}
	.st45{fill:#C83C5A;}
	.st46{fill:#CF4162;}
	.st47{fill:#B01C1C;}
	.st48{fill:#E52923;}
	.st49{fill:#125B95;}
	.st50{fill:#EEEDED;}
	.st51{fill:#B1B1B0;}
	.st52{fill:#98C01E;}
	.st53{fill:url(#SVGID_5_);}
	.st54{fill:#5DC2DB;}
	.st55{fill:url(#SVGID_6_);}
	.st56{fill:url(#SVGID_7_);}
	.st57{fill:#030405;}
	.st58{fill:#8666A4;}
	.st59{fill:#AE8FC2;}
	.st60{fill:#8860A3;}
	.st61{fill:#704693;}
	.st62{fill:#C8C6C7;}
	.st63{fill:#A7C835;}
	.st64{fill:#64B335;}
	.st65{fill:#174865;}
	.st66{fill:#5895C5;}
	.st67{fill:#4F2672;}
	.st68{fill:url(#SVGID_8_);}
	.st69{fill:url(#SVGID_9_);}
	.st70{fill:url(#SVGID_10_);}
	.st71{fill:url(#SVGID_11_);}
	.st72{fill:#FAB21E;}
	.st73{fill:#FBD704;}
	.st74{fill:#FAC00F;}
</style>
<g
   id="g1013"
   transform="matrix(0.57725215,0,0,0.57725215,84.627956,161.14787)"
   style="opacity:1;stop-opacity:1">
  <path
   id="rect178"
   style="fill:#000000;stroke:#000000"
   transform="rotate(45)"
   d="m 576.48639,-42.778687 h 282.85715 v 25.714285 H 576.48639 Z"
   inkscape:connector-curvature="0" />

  <path
   id="rect180"
   style="fill:#000000;stroke:#000000"
   d="m 387.37167,473.62769 h 282.85715 v 25.71428 H 387.37167 Z"
   inkscape:connector-curvature="0" />

  <path
   id="rect182"
   style="fill:#000000;stroke:#000000"
   transform="rotate(-45)"
   d="m -111.50702,705.05786 h 282.85715 v 25.71429 h -282.85715 z"
   inkscape:connector-curvature="0" />

  <path
   id="rect184"
   style="fill:#000000;stroke:#000000"
   transform="rotate(90)"
   d="m 345.05624,-541.65741 h 282.85715 v 25.71429 H 345.05624 Z"
   inkscape:connector-curvature="0" />

</g>
<path
   style="opacity:1;fill:none;stroke:#000000;stroke-width:12;stroke-linecap:butt;stroke-linejoin:miter;stroke-miterlimit:4;stroke-dasharray:none;stroke-opacity:1;stop-opacity:1"
   d="m 340.30461,665.73253 c 0,0 54.59728,-48.27706 85.3128,-42.85715 18.73883,3.30657 23.69941,42.33642 42.6564,42.85715 37.4781,1.02949 50.34561,-81.10764 87.82199,-80 20.1364,0.59515 25.22264,42.48842 45.1656,45.71428 19.26079,3.11551 33.25353,-27.71608 52.6932,-28.57143 11.64101,-0.51221 32.6196,14.28572 32.6196,14.28572"
   id="path1019"
   inkscape:connector-curvature="0"
   sodipodi:nodetypes="csssssc" />
<g
   id="g1027"
   transform="matrix(1,0,0.14235912,1,-84.498508,20.01824)"
   style="opacity:1;fill:#808000;stroke-width:12;stroke-miterlimit:4;stroke-dasharray:none;stop-opacity:1">
      <path
   sodipodi:nodetypes="cssscc"
   inkscape:connector-curvature="0"
   id="path1021"
   d="m 588.39834,607.56128 c 0,0 -22.24,65.84938 -11.25548,95.29586 6.60717,17.712 21.09636,31.27915 39.99999,31.42858 24.28029,0.19193 35.71714,-11.28969 45.4302,-33.76578 15.64492,-36.20246 -4.55103,-118.67295 -12.35745,-118.67295 -27.83588,14.2613 -45.84155,20.41164 -61.81726,25.71429 z"
   style="fill:#808000;stroke:#000000;stroke-width:12;stroke-linecap:butt;stroke-linejoin:miter;stroke-miterlimit:4;stroke-dasharray:none;stroke-opacity:1" />

      <path
   inkscape:connector-curvature="0"
   id="path1023"
   d="m 625.08028,598.15301 c 17.66074,29.14909 -0.94586,72.44955 -8.70843,99.01958"
   style="fill:#808000;stroke:#000000;stroke-width:12;stroke-linecap:butt;stroke-linejoin:miter;stroke-miterlimit:4;stroke-dasharray:none;stroke-opacity:1"
   sodipodi:nodetypes="cc" />

    </g>
<g
   style="opacity:1;stop-opacity:1"
   transform="matrix(0.62757928,0,0,0.62757928,271.13789,91.706235)"
   id="g188">
  <path
   inkscape:connector-curvature="0"
   d="m 576.48639,-42.778687 h 282.85715 v 25.714285 H 576.48639 Z"
   transform="rotate(45)"
   style="fill:#000000;stroke:#000000"
   id="path180" />

  <path
   inkscape:connector-curvature="0"
   d="m 387.37167,473.62769 h 282.85715 v 25.71428 H 387.37167 Z"
   style="fill:#000000;stroke:#000000"
   id="path182" />

  <path
   inkscape:connector-curvature="0"
   d="m -111.50702,705.05786 h 282.85715 v 25.71429 h -282.85715 z"
   transform="rotate(-45)"
   style="fill:#000000;stroke:#000000"
   id="path184" />

  <path
   inkscape:connector-curvature="0"
   d="m 345.05624,-541.65741 h 282.85715 v 25.71429 H 345.05624 Z"
   transform="rotate(90)"
   style="fill:#000000;stroke:#000000"
   id="path186" />

</g>
</svg>
