<?xml version="1.0" encoding="UTF-8" standalone="no"?>
<svg
   xmlns:dc="http://purl.org/dc/elements/1.1/"
   xmlns:cc="http://creativecommons.org/ns#"
   xmlns:rdf="http://www.w3.org/1999/02/22-rdf-syntax-ns#"
   xmlns:svg="http://www.w3.org/2000/svg"
   xmlns="http://www.w3.org/2000/svg"
   xmlns:sodipodi="http://sodipodi.sourceforge.net/DTD/sodipodi-0.dtd"
   xmlns:inkscape="http://www.inkscape.org/namespaces/inkscape"
   inkscape:version="1.0beta1 (32d4812, 2019-09-19)"
   sodipodi:docname="kidaha-01-dead.svg"
   xml:space="preserve"
   style="enable-background:new 0 0 1000 1000;"
   viewBox="0 0 1000 1000"
   y="0px"
   x="0px"
   id="monster"
   version="1.1"><metadata
   id="metadata110">
  <rdf:RDF>
    <cc:Work
       rdf:about="">
      <dc:format>image/svg+xml</dc:format>
      <dc:type
         rdf:resource="http://purl.org/dc/dcmitype/StillImage" />
      <dc:title></dc:title>
    </cc:Work>
  </rdf:RDF>
</metadata>
<defs
   id="defs108">
	
	
	
	
	
</defs>
<sodipodi:namedview
   inkscape:current-layer="monster"
   inkscape:window-maximized="0"
   inkscape:window-y="23"
   inkscape:window-x="0"
   inkscape:cy="533.21609"
   inkscape:cx="351.42857"
   inkscape:zoom="0.49497475"
   showgrid="false"
   id="namedview106"
   inkscape:window-height="1209"
   inkscape:window-width="1600"
   inkscape:pageshadow="2"
   inkscape:pageopacity="0"
   guidetolerance="10"
   gridtolerance="10"
   objecttolerance="10"
   borderopacity="1"
   inkscape:document-rotation="0"
   bordercolor="#666666"
   pagecolor="#ffffff" />

<style
   id="style10"
   type="text/css">
	.st0{fill:#C783B7;}
	.st1{fill:#125785;}
	.st2{fill:#8E4C87;}
	.st3{fill:#1B70B6;}
	.st4{fill:#66A0D7;}
	.st5{fill:#1E1F1D;}
	.st6{fill:#A3201B;}
	.st7{fill:#E32D28;}
	.st8{fill:url(#SVGID_1_);}
	.st9{fill:#FFFFFF;}
	.st10{fill:#D5418F;}
	.st11{fill:#E3C724;}
	.st12{fill:#A7C833;}
	.st13{fill:#E6362C;}
	.st14{fill:#C72C28;}
	.st15{fill:#E3AB28;}
	.st16{fill:#9DC42B;}
	.st17{fill:#FADF21;}
	.st18{fill:#CA9220;}
	.st19{fill:#94C128;}
	.st20{fill:#74922B;}
	.st21{fill:#59AE33;}
	.st22{fill:#499834;}
	.st23{fill:#E62A46;}
	.st24{fill:#CD163B;}
	.st25{fill:#063E51;}
	.st26{fill:#B2B1B0;}
	.st27{fill:#E62A3B;}
	.st28{fill:#CA152C;}
	.st29{fill:url(#SVGID_2_);}
	.st30{fill:url(#SVGID_3_);}
	.st31{fill:#C71B1B;}
	.st32{fill:#E52523;}
	.st33{fill:url(#SVGID_4_);}
	.st34{fill:#E43333;}
	.st35{fill:#9C1C1B;}
	.st36{fill:#C8C7C7;}
	.st37{fill:#C39E05;}
	.st38{fill:#E5B90D;}
	.st39{fill:#F1C906;}
	.st40{fill:#F7B21C;}
	.st41{fill:#566EB3;}
	.st42{fill:#4081C2;}
	.st43{fill:#F2AABB;}
	.st44{fill:#EA6379;}
	.st45{fill:#C83C5A;}
	.st46{fill:#CF4162;}
	.st47{fill:#B01C1C;}
	.st48{fill:#E52923;}
	.st49{fill:#125B95;}
	.st50{fill:#EEEDED;}
	.st51{fill:#B1B1B0;}
	.st52{fill:#98C01E;}
	.st53{fill:url(#SVGID_5_);}
	.st54{fill:#5DC2DB;}
	.st55{fill:url(#SVGID_6_);}
	.st56{fill:url(#SVGID_7_);}
	.st57{fill:#030405;}
	.st58{fill:#8666A4;}
	.st59{fill:#AE8FC2;}
	.st60{fill:#8860A3;}
	.st61{fill:#704693;}
	.st62{fill:#C8C6C7;}
	.st63{fill:#A7C835;}
	.st64{fill:#64B335;}
	.st65{fill:#174865;}
	.st66{fill:#5895C5;}
	.st67{fill:#4F2672;}
	.st68{fill:url(#SVGID_8_);}
	.st69{fill:url(#SVGID_9_);}
	.st70{fill:url(#SVGID_10_);}
	.st71{fill:url(#SVGID_11_);}
	.st72{fill:#FAB21E;}
	.st73{fill:#FBD704;}
	.st74{fill:#FAC00F;}
</style>

<g
   id="g39"
   style="opacity:1;stop-opacity:1">
		<g
   id="XMLID_236_">
			<g
   id="g36">
				<path
   class="st0"
   d="m 882.6821,83.1333 c 18.7749,-17.6367 49.7676,12.5161 57.6787,63.0151 -20.5898,-13.8169 -42.832,-15.0898 -57.3803,-13.8979 4.226,-28.5005 -0.1084,-48.2774 -0.2984,-49.1172 z"
   id="path12"
   inkscape:connector-curvature="0" />

				<path
   class="st1"
   d="m 874.9341,164.8418 c -10.2676,-1.436 -17.772,-1.3003 -18.3682,-1.2734 4.6055,-8.9405 8.1548,-18.4493 10.2949,-28.5547 0.5689,-0.1895 6.7456,-1.9776 16.1197,-2.7632 -1.4361,9.9424 -3.9556,20.9419 -8.0464,32.5913 z"
   id="path14"
   inkscape:connector-curvature="0" />

				<path
   class="st0"
   d="m 917.8745,270.7432 c -3.6846,-47.7085 -34.4604,-68.4336 -55.9717,-77.1573 5.5542,-9.8339 9.7803,-19.479 13.0313,-28.7441 21.5923,2.9531 55.457,12.7871 62.9883,45.1348 -4.1451,20.8066 -10.837,41.2876 -20.0479,60.7666 z"
   id="path16"
   inkscape:connector-curvature="0" />

				<path
   class="st1"
   d="m 791.0854,232.2729 c 0,0 8.7232,7.9107 19.3707,21.5381 -23.9766,19.6958 -55.5113,38.3077 -96.853,53.9937 l -6.2314,-37.0342 23.4072,-6.2851 c -10e-5,0 28.9071,-10.8912 60.3065,-32.2125 z"
   id="path18"
   inkscape:connector-curvature="0" />

				<path
   class="st2"
   d="m 882.6821,83.1333 c 0.19,0.8398 4.5244,20.6167 0.2984,49.1172 -9.3741,0.7856 -15.5508,2.5737 -16.1197,2.7632 0.8399,-3.9551 1.4629,-7.9922 1.8423,-12.1099 1.8964,-20.5083 7.125,-33.3227 13.979,-39.7705 z"
   id="path20"
   inkscape:connector-curvature="0" />

				<path
   class="st3"
   d="m 810.4561,253.811 c 17.5825,22.5943 40.3935,60.9024 37.4404,105.1158 -31.2637,24.5722 -70.2759,42.6425 -117.1177,50.77 L 713.603,307.8047 c 41.3418,-15.686 72.8765,-34.2979 96.8531,-53.9937 z"
   id="path22"
   inkscape:connector-curvature="0" />

				<path
   class="st1"
   d="m 840.8525,187.5986 c 0,0 9.1031,1.1382 21.0503,5.9873 -5.039,9.0489 -11.1884,18.2598 -18.6391,27.417 -13.0581,-8.1816 -23.6509,-11.0263 -23.6509,-11.0263 7.5586,-6.8272 14.792,-14.2774 21.2397,-22.378 z"
   id="path24"
   inkscape:connector-curvature="0" />

				<path
   class="st0"
   d="m 847.8965,358.9268 c 2.9531,-44.2134 -19.8579,-82.5215 -37.4404,-105.1158 13.0581,-10.7011 23.8676,-21.7275 32.8076,-32.8081 21.2671,13.3291 49.0903,40.8003 48.4404,93.1411 -12.3271,16.4449 -26.9292,31.5621 -43.8076,44.7828 z"
   id="path26"
   inkscape:connector-curvature="0" />

				<path
   class="st2"
   d="m 856.5659,163.5684 c 0.5962,-0.0269 8.1006,-0.1626 18.3682,1.2734 -3.251,9.2651 -7.4771,18.9102 -13.0313,28.7441 -11.9472,-4.8491 -21.0503,-5.9873 -21.0503,-5.9873 5.9873,-7.477 11.3247,-15.4961 15.6866,-24.0302 0,0 0,0 0.0268,0 z"
   id="path28"
   inkscape:connector-curvature="0" />

				<path
   class="st3"
   d="m 937.9224,209.9766 c -7.5313,-32.3477 -41.396,-42.1817 -62.9883,-45.1348 4.0908,-11.6494 6.6103,-22.6489 8.0464,-32.5913 14.5483,-1.1919 36.7905,0.081 57.3803,13.8979 2.2486,14.3858 2.628,30.4512 0.2979,47.5459 -0.7315,5.4453 -1.6528,10.8638 -2.7363,16.2823 z"
   id="path30"
   inkscape:connector-curvature="0" />

				<path
   class="st3"
   d="m 843.2637,221.0029 c 7.4507,-9.1572 13.6001,-18.3681 18.6391,-27.417 21.5113,8.7237 52.2871,29.4488 55.9717,77.1573 v 0.0273 c -7.1792,15.1714 -15.9028,29.7197 -26.1703,43.3735 0.6498,-52.3408 -27.1734,-79.812 -48.4405,-93.1411 z"
   id="path32"
   inkscape:connector-curvature="0" />

				<path
   class="st2"
   d="m 791.0854,232.2729 c 9.5362,-6.4746 19.2891,-13.8979 28.5274,-22.2963 0,0 10.5928,2.8447 23.6509,11.0263 -8.94,11.0806 -19.7495,22.107 -32.8076,32.8081 -10.6475,-13.6274 -19.3707,-21.5381 -19.3707,-21.5381 z"
   id="path34"
   inkscape:connector-curvature="0" />

			</g>

		</g>

	</g>
<g
   id="g68"
   style="opacity:1;stop-opacity:1">
		<g
   id="XMLID_235_">
			<g
   id="g65">
				<path
   class="st0"
   d="m 117.0161,133.0454 c -4.2803,-29.0967 0.3252,-49.0903 0.3252,-49.0903 -18.8017,-17.6636 -49.7944,12.4892 -57.6782,62.9614 20.5898,-13.79 42.8047,-15.063 57.353,-13.8711 z"
   id="path41"
   inkscape:connector-curvature="0" />

				<path
   class="st3"
   d="m 125.0356,165.6367 c -4.0639,-11.6494 -6.5566,-22.6484 -8.0195,-32.5913 -14.5483,-1.1919 -36.7632,0.0811 -57.353,13.8711 -2.2485,14.4126 -2.6279,30.478 -0.2979,47.5728 0.7315,5.4184 1.6255,10.8369 2.709,16.228 7.586,-32.2935 41.396,-42.1275 62.9614,-45.0806 z"
   id="path43"
   inkscape:connector-curvature="0" />

				<path
   class="st3"
   d="m 152.1001,359.7217 c 31.2637,24.5722 70.2759,42.6699 117.1177,50.77 L 286.3936,308.627 c -41.3418,-15.6861 -72.8765,-34.2984 -96.8526,-53.9937 -17.6098,22.5942 -40.4209,60.875 -37.4409,105.0884 z"
   id="path45"
   inkscape:connector-curvature="0" />

				<path
   class="st3"
   d="m 156.7329,221.8252 c -7.4502,-9.1841 -13.6001,-18.3955 -18.6665,-27.4443 -21.5107,8.7236 -52.2598,29.476 -55.9443,77.1572 v 0.0273 c 7.1792,15.1714 15.9028,29.7466 26.1709,43.4009 -0.6504,-52.3682 27.1728,-79.8393 48.4399,-93.1411 z"
   id="path47"
   inkscape:connector-curvature="0" />

				<path
   class="st2"
   d="m 117.3413,83.9551 c 0,0 -4.6055,19.9936 -0.3252,49.0903 9.8071,0.7857 16.147,2.7363 16.147,2.7363 -0.8399,-3.9282 -1.4629,-7.9648 -1.8423,-12.0556 -1.8965,-20.5088 -7.125,-33.3233 -13.9795,-39.771 z"
   id="path49"
   inkscape:connector-curvature="0" />

				<path
   class="st2"
   d="m 159.1167,188.3667 c -5.96,-7.4771 -11.2974,-15.4692 -15.686,-24.0034 0,0 -7.6939,-0.2168 -18.3951,1.2734 3.2779,9.2656 7.5044,18.9102 13.0308,28.7442 11.541,-4.6866 20.4273,-5.9327 21.0503,-6.0142 z"
   id="path51"
   inkscape:connector-curvature="0" />

				<path
   class="st2"
   d="m 180.3838,210.7715 c 0,0 -10.5928,2.8447 -23.6509,11.0537 8.94,11.0532 19.7495,22.1064 32.8081,32.8081 10.6196,-13.6543 19.3706,-21.5654 19.3706,-21.5654 -9.5366,-6.4746 -19.2895,-13.898 -28.5278,-22.2964 z"
   id="path53"
   inkscape:connector-curvature="0" />

				<path
   class="st0"
   d="m 125.0356,165.6367 c -21.5654,2.9531 -55.3754,12.7871 -62.9614,45.0806 4.145,20.8335 10.8369,41.3423 20.0479,60.8208 3.6845,-47.6812 34.4336,-68.4336 55.9443,-77.1572 -5.5264,-9.834 -9.7529,-19.4786 -13.0308,-28.7442 z"
   id="path55"
   inkscape:connector-curvature="0" />

				<path
   class="st1"
   d="m 159.1167,188.3667 c -0.623,0.0815 -9.5093,1.3276 -21.0503,6.0142 5.0664,9.0488 11.2163,18.2602 18.6665,27.4443 13.0581,-8.209 23.6509,-11.0537 23.6509,-11.0537 -7.5586,-6.8272 -14.792,-14.3042 -21.2398,-22.4048 0,0 0,0 -0.0273,0 z"
   id="path57"
   inkscape:connector-curvature="0" />

				<path
   class="st1"
   d="m 133.1631,135.7817 c 0,0 -6.3399,-1.9506 -16.147,-2.7363 1.4629,9.9429 3.9556,20.9419 8.0195,32.5913 10.7012,-1.4902 18.3951,-1.2734 18.3951,-1.2734 -4.6055,-8.94 -8.1548,-18.4766 -10.2676,-28.5816 z"
   id="path59"
   inkscape:connector-curvature="0" />

				<path
   class="st0"
   d="m 156.7329,221.8252 c -21.2671,13.3018 -49.0903,40.7729 -48.4399,93.1411 12.3535,16.4448 26.956,31.562 43.8071,44.7554 -2.98,-44.2134 19.8311,-82.4942 37.4409,-105.0884 -13.0586,-10.7017 -23.8681,-21.7549 -32.8081,-32.8081 z"
   id="path61"
   inkscape:connector-curvature="0" />

				<path
   class="st1"
   d="m 292.625,271.5654 -23.4072,-6.2851 c 0,0 -28.9073,-10.8911 -60.3062,-32.2124 0,0 -8.751,7.9111 -19.3706,21.5654 23.9761,19.6953 55.5108,38.3076 96.8526,53.9937 z"
   id="path63"
   inkscape:connector-curvature="0" />

			</g>

		</g>

	</g>
<path
   class="st4"
   d="M 694.4595,910.5264 C 631.9746,884.2114 737.5679,787.5557 780.6797,397.5155 805.0981,176.4833 703.5762,113.683 611.0034,100.7484 l 30.8052,-58.228 c 1.8267,-3.3813 -2.1475,-7.7505 -10.1768,-11.2417 -7.9902,-3.5005 -19.8979,-5.8086 -32.3549,-5.334 -21.0528,0.7984 -39.4814,4.3931 -56.2286,9.0825 -16.7216,4.731 -31.792,10.6128 -45.8891,17.1148 -14.0938,6.4785 -27.1709,13.5991 -39.5884,21.1225 -12.375,7.5254 -24.2852,15.5059 -35.2988,23.9488 l -1.6079,1.4751 -1.7193,1.3696 c -8.0312,5.1343 -15.2646,10.5747 -22.2217,16.1602 -6.9316,5.6093 -13.4897,11.3979 -19.7065,17.3501 -12.4297,11.8847 -23.4448,24.3877 -32.8101,37.2475 l -35.6543,-40.7612 c -2.6269,-3.002 -7.2602,-3.0244 -12.5688,-0.4873 -5.3232,2.5473 -11.2754,7.7153 -16.0889,14.7871 -11.2334,16.5762 -20.393,33.8452 -26.9936,51.3247 -6.628,17.4922 -10.6851,35.1484 -12.1153,52.3696 -1.4834,17.2188 -0.3701,33.9619 2.8331,49.8482 1.5957,7.9282 3.6992,15.6562 6.2304,23.1714 0.645,1.8925 7.1763,19.8608 7.1763,19.8608 -0.0127,1.1426 0,2.3218 -0.0127,3.4785 l -55.0049,-1.8701 c -8.6758,-0.2979 -11.7563,10.8955 -6.7226,24.8267 19.8691,55.2285 40.2334,110.1235 60.6962,164.9956 l -32.7539,-0.7379 c -8.6923,-0.189 -11.5649,10.9785 -6.4091,24.8149 l 55.1269,146.4785 c 0.0557,0.5469 0.083,1.0821 0.1104,1.6313 l -31.9698,-0.6211 c -8.6919,-0.1665 -11.5102,11.0044 -6.2983,24.8398 l 47.8389,125.6768 c 0.4946,7.5141 0.8935,14.1211 1.2236,19.647 4.8145,82.7246 -25.8794,53.4409 -71.1338,76.019 -45.2534,22.5781 62.4995,24.0034 148.7041,24.0034 86.2178,0 25.8657,-54.0459 34.4849,-100.0224 8.6245,-45.9639 28.0132,-49.2037 135.7807,-44.9165 107.7525,4.2968 60.3374,85.2817 47.399,120.9355 -12.9263,35.6489 124.9955,22.2095 196.1161,18.0767 71.1334,-4.0969 -17.2289,-31.3186 -79.7416,-57.6584 z"
   id="path70"
   inkscape:connector-curvature="0"
   style="opacity:1;stop-opacity:1" />

<g
   transform="translate(-11.428571,-137.14286)"
   id="g1013">
  <path
     inkscape:connector-curvature="0"
     d="m 576.48639,-42.778687 h 282.85715 v 25.714285 H 576.48639 Z"
     transform="rotate(45)"
     style="fill:#000000;stroke:#000000"
     id="rect178" />
  <path
     inkscape:connector-curvature="0"
     d="m 387.37167,473.62769 h 282.85715 v 25.71428 H 387.37167 Z"
     style="fill:#000000;stroke:#000000"
     id="rect180" />
  <path
     inkscape:connector-curvature="0"
     d="m -111.50702,705.05786 h 282.85715 v 25.71429 h -282.85715 z"
     transform="rotate(-45)"
     style="fill:#000000;stroke:#000000"
     id="rect182" />
  <path
     inkscape:connector-curvature="0"
     d="m 345.05624,-541.65741 h 282.85715 v 25.71429 H 345.05624 Z"
     transform="rotate(90)"
     style="fill:#000000;stroke:#000000"
     id="rect184" />
</g>
<path
   sodipodi:nodetypes="csssssc"
   inkscape:connector-curvature="0"
   id="path1019"
   d="m 342.55837,645.71429 c 0,0 54.59728,-48.27706 85.3128,-42.85715 18.73883,3.30657 23.69941,42.33642 42.6564,42.85715 37.4781,1.02949 50.34561,-81.10764 87.82199,-80 20.1364,0.59515 25.22264,42.48842 45.1656,45.71428 19.26079,3.11551 33.25353,-27.71608 52.6932,-28.57143 11.64101,-0.51221 32.6196,14.28572 32.6196,14.28572"
   style="fill:none;stroke:#000000;stroke-width:12;stroke-linecap:butt;stroke-linejoin:miter;stroke-miterlimit:4;stroke-dasharray:none;stroke-opacity:1" />
<g
   style="stroke-width:12;stroke-miterlimit:4;stroke-dasharray:none;fill:#3465a4"
   transform="matrix(1,0,0.14235912,1,-82.244748,1.428578e-8)"
   id="g1027">
  <path
     style="fill:#3465a4;stroke:#000000;stroke-width:12;stroke-linecap:butt;stroke-linejoin:miter;stroke-miterlimit:4;stroke-dasharray:none;stroke-opacity:1"
     d="m 588.39834,607.56128 c 0,0 -22.24,65.84938 -11.25548,95.29586 6.60717,17.712 21.09636,31.27915 39.99999,31.42858 24.28029,0.19193 35.71714,-11.28969 45.4302,-33.76578 15.64492,-36.20246 -4.55103,-118.67295 -12.35745,-118.67295 -27.83588,14.2613 -45.84155,20.41164 -61.81726,25.71429 z"
     id="path1021"
     inkscape:connector-curvature="0"
     sodipodi:nodetypes="cssscc" />
  <path
     sodipodi:nodetypes="cc"
     style="fill:#3465a4;stroke:#000000;stroke-width:12;stroke-linecap:butt;stroke-linejoin:miter;stroke-miterlimit:4;stroke-dasharray:none;stroke-opacity:1"
     d="m 625.08028,598.15301 c 17.66074,29.14909 -0.94586,72.44955 -8.70843,99.01958"
     id="path1023"
     inkscape:connector-curvature="0" />
</g>
</svg>
