<?xml version="1.0" encoding="UTF-8" standalone="no"?>
<svg
   xmlns:dc="http://purl.org/dc/elements/1.1/"
   xmlns:cc="http://creativecommons.org/ns#"
   xmlns:rdf="http://www.w3.org/1999/02/22-rdf-syntax-ns#"
   xmlns:svg="http://www.w3.org/2000/svg"
   xmlns="http://www.w3.org/2000/svg"
   xmlns:sodipodi="http://sodipodi.sourceforge.net/DTD/sodipodi-0.dtd"
   xmlns:inkscape="http://www.inkscape.org/namespaces/inkscape"
   inkscape:version="1.0beta1 (32d4812, 2019-09-19)"
   sodipodi:docname="kidaha-08-dead.svg"
   xml:space="preserve"
   style="enable-background:new 0 0 1000 1000;"
   viewBox="0 0 1000 1000"
   y="0px"
   x="0px"
   id="monster"
   version="1.1"><metadata
   id="metadata76">
  <rdf:RDF>
    <cc:Work
       rdf:about="">
      <dc:format>image/svg+xml</dc:format>
      <dc:type
         rdf:resource="http://purl.org/dc/dcmitype/StillImage" />
      <dc:title></dc:title>
    </cc:Work>
  </rdf:RDF>
</metadata>
<defs
   id="defs74">
	
	
	
	
	
</defs>
<sodipodi:namedview
   inkscape:current-layer="monster"
   inkscape:window-maximized="0"
   inkscape:window-y="23"
   inkscape:window-x="0"
   inkscape:cy="560"
   inkscape:cx="400"
   inkscape:zoom="0.35"
   showgrid="false"
   id="namedview72"
   inkscape:window-height="1209"
   inkscape:window-width="1600"
   inkscape:pageshadow="2"
   inkscape:pageopacity="0"
   guidetolerance="10"
   gridtolerance="10"
   objecttolerance="10"
   borderopacity="1"
   inkscape:document-rotation="0"
   bordercolor="#666666"
   pagecolor="#ffffff" />

<style
   id="style10"
   type="text/css">
	.st0{fill:#C783B7;}
	.st1{fill:#125785;}
	.st2{fill:#8E4C87;}
	.st3{fill:#1B70B6;}
	.st4{fill:#66A0D7;}
	.st5{fill:#1E1F1D;}
	.st6{fill:#A3201B;}
	.st7{fill:#E32D28;}
	.st8{fill:url(#SVGID_1_);}
	.st9{fill:#FFFFFF;}
	.st10{fill:#D5418F;}
	.st11{fill:#E3C724;}
	.st12{fill:#A7C833;}
	.st13{fill:#E6362C;}
	.st14{fill:#C72C28;}
	.st15{fill:#E3AB28;}
	.st16{fill:#9DC42B;}
	.st17{fill:#FADF21;}
	.st18{fill:#CA9220;}
	.st19{fill:#94C128;}
	.st20{fill:#74922B;}
	.st21{fill:#59AE33;}
	.st22{fill:#499834;}
	.st23{fill:#E62A46;}
	.st24{fill:#CD163B;}
	.st25{fill:#063E51;}
	.st26{fill:#B2B1B0;}
	.st27{fill:#E62A3B;}
	.st28{fill:#CA152C;}
	.st29{fill:url(#SVGID_2_);}
	.st30{fill:url(#SVGID_3_);}
	.st31{fill:#C71B1B;}
	.st32{fill:#E52523;}
	.st33{fill:url(#SVGID_4_);}
	.st34{fill:#E43333;}
	.st35{fill:#9C1C1B;}
	.st36{fill:#C8C7C7;}
	.st37{fill:#C39E05;}
	.st38{fill:#E5B90D;}
	.st39{fill:#F1C906;}
	.st40{fill:#F7B21C;}
	.st41{fill:#566EB3;}
	.st42{fill:#4081C2;}
	.st43{fill:#F2AABB;}
	.st44{fill:#EA6379;}
	.st45{fill:#C83C5A;}
	.st46{fill:#CF4162;}
	.st47{fill:#B01C1C;}
	.st48{fill:#E52923;}
	.st49{fill:#125B95;}
	.st50{fill:#EEEDED;}
	.st51{fill:#B1B1B0;}
	.st52{fill:#98C01E;}
	.st53{fill:url(#SVGID_5_);}
	.st54{fill:#5DC2DB;}
	.st55{fill:url(#SVGID_6_);}
	.st56{fill:url(#SVGID_7_);}
	.st57{fill:#030405;}
	.st58{fill:#8666A4;}
	.st59{fill:#AE8FC2;}
	.st60{fill:#8860A3;}
	.st61{fill:#704693;}
	.st62{fill:#C8C6C7;}
	.st63{fill:#A7C835;}
	.st64{fill:#64B335;}
	.st65{fill:#174865;}
	.st66{fill:#5895C5;}
	.st67{fill:#4F2672;}
	.st68{fill:url(#SVGID_8_);}
	.st69{fill:url(#SVGID_9_);}
	.st70{fill:url(#SVGID_10_);}
	.st71{fill:url(#SVGID_11_);}
	.st72{fill:#FAB21E;}
	.st73{fill:#FBD704;}
	.st74{fill:#FAC00F;}
</style>

<g
   id="XMLID_302_"
   style="opacity:1;stop-opacity:1">
		<g
   id="g16">
			<path
   class="st42"
   d="m 692.7197,61.1704 -67.5468,41.5894 26.9951,63.3169 h 0.0195 c -0.2881,3.9223 -1.4609,6.6142 -3.5381,7.4604 -5.7295,2.3267 -16.1514,-9.8833 -23.3037,-27.2842 l -4.4033,-9.6714 -2.2881,-5.0376 -2.9414,-6.6337 -12.1143,-27.2266 26.3233,-17.9585 6.2109,-4.2686 4.71,-3.2685 9.3642,-6.5567 19.5547,-13.6132 28.6494,-19.4585 16.5938,14.1899 8.4599,7.1528 3.9795,3.4034 2.8272,2.3266 22.4189,18.6123 22.4776,18.6314 5.5956,4.6343 2.8839,2.3842 4.5185,3.8838 18.4004,15.728 -3.4609,20.4585 -1.6729,10.0562 -0.9414,6.2104 -3.7685,24.8809 -3.75,24.8804 -1.8653,12.4404 -3.5761,20.939 -11.6329,10.7675 -2.9033,2.6919 -1.6338,1.5381 -3.2304,3.0957 -12.9024,12.3252 -25.8222,24.688 -51.6456,49.3384 c -5.3457,5.5566 -11.1523,11.1328 -17.3437,16.6128 -27.8994,24.5537 -56.6445,9.5371 -58.8369,-13.8823 l 145.3613,-120.5 33.8027,-91.7163 z"
   id="path12"
   inkscape:connector-curvature="0" />

			<path
   class="st49"
   d="m 652.168,166.0767 -26.9951,-63.3169 67.5468,-41.5894 88.0244,77.1607 -33.8027,91.7163 -145.3613,120.5 c -1,-10.71 3.5576,-23.1695 16.3056,-34.4175 6.21,-5.4414 12.459,-10.4986 18.6309,-15.0938 l 55.4727,-44.9931 27.7451,-22.5347 13.8633,-11.2676 3.4609,-2.8261 1.75,-1.3848 c 0.1924,-0.1152 0.2685,-0.1729 0.4228,-0.2691 l 1.7305,-1.038 0.5,-1.2886 0.2695,-0.6343 0.1338,-0.3462 0.3467,-1.4614 2.8643,-12.2095 5.7686,-24.5151 5.7686,-24.4961 1.4609,-6.1148 c 0.1348,-0.6538 0.1348,-0.5766 0.1924,-0.8076 l 0.1729,-0.4804 0.3076,-1 1.3467,-4.2491 -3.2881,-3.7495 -0.8848,-1 -2.5186,-2.4609 -5.1914,-5.0957 -20.9004,-20.3618 -20.8427,-20.3623 -2.6153,-2.5767 -0.5576,-0.5576 -0.2695,-0.3076 -0.5957,-0.5957 -2.3848,-2.5381 -5.0176,-5.3452 -9.9218,5.2294 c -0.5197,0.2886 -2.5762,1.5 -4.1534,2.4039 l -4.9218,2.9033 -9.9023,5.768 -9.9023,5.7876 -4.9229,2.8843 -1.249,0.75 -0.7314,0.3843 -1.461,0.7886 -12.248,6.7104 4.0185,12.0557 1.0772,3.1728 1.7109,4.7681 3.6338,9.9795 c 4.5186,11.0366 6.6338,21.5352 6.1338,28.3223 z"
   id="path14"
   inkscape:connector-curvature="0" />

		</g>

	</g>
<g
   id="XMLID_301_"
   style="opacity:1;stop-opacity:1">
		<g
   id="g23">
			<path
   class="st42"
   d="m 158.7422,107.7783 -18.3814,15.728 3.4414,20.4585 1.6729,10.0562 0.9614,6.2104 3.7495,24.8809 3.7495,24.8804 1.8843,12.4404 3.5186,20.939 11.6714,10.7675 2.9223,2.6919 1.6343,1.5381 3.2114,3.0957 12.9014,12.3252 25.8232,24.688 51.6646,49.3384 c 5.3262,5.5566 11.1328,11.1328 17.3628,16.6128 27.8994,24.5537 56.664,9.5371 58.8174,-13.8823 h -0.0191 l -145.3423,-120.5 -33.8022,-91.7163 88.0244,-77.1607 67.5278,41.5894 -26.9765,63.3169 h -0.0386 c 0.2886,3.9419 1.4614,6.6142 3.5571,7.4604 5.7491,2.3267 16.1319,-9.8833 23.3037,-27.2842 l 4.3843,-9.6714 2.3071,-5.0376 2.961,-6.6337 12.1138,-27.2266 -26.3614,-17.9585 -6.1914,-4.2686 -4.7104,-3.2685 -9.3833,-6.5567 -19.5547,-13.6132 -28.6494,-19.4585 -16.5742,14.1899 -8.4795,7.1528 -3.98,3.4034 -2.8071,2.3266 -22.439,18.6123 -22.4194,18.6314 -5.6338,4.6343 -2.9034,2.3842 z"
   id="path19"
   inkscape:connector-curvature="0" />

			<path
   class="st49"
   d="m 300.8735,137.7544 c -4.5376,11.0366 -6.6528,21.5352 -6.1528,28.3223 h 0.0386 l 26.9765,-63.3169 -67.5278,-41.5894 -88.0244,77.1607 33.8022,91.7163 145.3423,120.5 h 0.0191 c 1,-10.71 -3.5762,-23.1695 -16.3052,-34.4175 -6.2295,-5.4414 -12.4785,-10.4986 -18.6509,-15.0938 l -55.4717,-44.9931 -27.7265,-22.5347 -13.8824,-11.2676 -3.4609,-2.8261 -1.75,-1.3848 c -0.1728,-0.1152 -0.269,-0.1729 -0.4033,-0.2691 l -1.7114,-1.038 -0.5386,-1.2886 -0.2691,-0.6343 -0.1152,-0.3462 -0.3271,-1.4614 -2.9034,-12.2095 -5.768,-24.5151 -5.7686,-24.4961 -1.4419,-6.1148 c -0.1347,-0.6538 -0.1347,-0.5766 -0.2114,-0.8076 l -0.1538,-0.4804 -0.3272,-1 -1.3266,-4.2491 3.2685,-3.7495 0.8848,-1 2.5186,-2.4609 5.2109,-5.0957 20.8813,-20.3618 20.8619,-20.3623 2.5957,-2.5767 0.5771,-0.5576 0.2691,-0.3076 0.5766,-0.5957 2.4038,-2.5381 5.0181,-5.3452 9.9023,5.2294 c 0.5191,0.2886 2.5957,1.5 4.1534,2.4039 l 4.9609,2.9033 9.8828,5.768 9.9023,5.7876 4.9224,2.8843 1.231,0.75 0.7299,0.3843 1.4615,0.7886 12.229,6.7104 -3.9995,12.0557 -1.0576,3.1728 -1.711,4.7681 z"
   id="path21"
   inkscape:connector-curvature="0" />

		</g>

	</g>
<g
   id="XMLID_259_"
   style="opacity:1;stop-opacity:1">
		<g
   id="g30">
			<path
   class="st4"
   d="m 499.5195,967.439 c -108.3584,0 -95.2466,-110.1397 -95.2466,-110.1397 0,0 -52.3237,101.4063 -199.9189,109.521 -147.5952,8.1143 -246.602,-64.8916 -123.2764,-77.063 123.2764,-12.1474 63.5059,-247.394 50.419,-446.1499 0,0 -6.5557,-64.9653 38.3213,-117.8828 0.0991,-0.1484 58.3354,-97.5229 267.5561,-108.3833 v 0.0244 c 0,0 328.6621,-17.2431 312.4336,295.042 -13.6562,263.1524 -30.3056,308.2774 20.6817,331.3838 0.0253,0.0244 0.0253,0 0.0253,0 9.5,7.0752 21.9688,10.6377 36.0206,11.9243 h 0.0244 c 55.1934,5.1211 134.7061,-24.665 154.4229,-14.5962 31.7656,16.1797 18.6786,126.3194 -151.3301,126.3194 -170.0087,0 -177.4804,-98.6364 -177.4804,-98.6364 0,0 -24.2941,98.6364 -132.6525,98.6364 z"
   id="path26"
   inkscape:connector-curvature="0" />

			<path
   class="st42"
   d="m 751.7373,790.3789 c -2.0537,26.8921 5.4678,43.5664 18.752,53.4126 C 719.502,820.6851 736.1514,775.5601 749.8076,512.4077 766.0361,200.1226 437.374,217.3657 437.374,217.3657 v -0.0244 c 12.3697,-0.6435 25.2588,-0.9897 38.6924,-0.9897 240.9121,0 324.7285,91.4121 308.4014,273.5678 -0.2969,114.5928 -28.1533,240.8872 -32.7305,300.4595 z"
   id="path28"
   inkscape:connector-curvature="0" />

		</g>

	</g>

<style
   id="style10-5"
   type="text/css">
	.st0{fill:#C783B7;}
	.st1{fill:#125785;}
	.st2{fill:#8E4C87;}
	.st3{fill:#1B70B6;}
	.st4{fill:#66A0D7;}
	.st5{fill:#1E1F1D;}
	.st6{fill:#A3201B;}
	.st7{fill:#E32D28;}
	.st8{fill:url(#SVGID_1_);}
	.st9{fill:#FFFFFF;}
	.st10{fill:#D5418F;}
	.st11{fill:#E3C724;}
	.st12{fill:#A7C833;}
	.st13{fill:#E6362C;}
	.st14{fill:#C72C28;}
	.st15{fill:#E3AB28;}
	.st16{fill:#9DC42B;}
	.st17{fill:#FADF21;}
	.st18{fill:#CA9220;}
	.st19{fill:#94C128;}
	.st20{fill:#74922B;}
	.st21{fill:#59AE33;}
	.st22{fill:#499834;}
	.st23{fill:#E62A46;}
	.st24{fill:#CD163B;}
	.st25{fill:#063E51;}
	.st26{fill:#B2B1B0;}
	.st27{fill:#E62A3B;}
	.st28{fill:#CA152C;}
	.st29{fill:url(#SVGID_2_);}
	.st30{fill:url(#SVGID_3_);}
	.st31{fill:#C71B1B;}
	.st32{fill:#E52523;}
	.st33{fill:url(#SVGID_4_);}
	.st34{fill:#E43333;}
	.st35{fill:#9C1C1B;}
	.st36{fill:#C8C7C7;}
	.st37{fill:#C39E05;}
	.st38{fill:#E5B90D;}
	.st39{fill:#F1C906;}
	.st40{fill:#F7B21C;}
	.st41{fill:#566EB3;}
	.st42{fill:#4081C2;}
	.st43{fill:#F2AABB;}
	.st44{fill:#EA6379;}
	.st45{fill:#C83C5A;}
	.st46{fill:#CF4162;}
	.st47{fill:#B01C1C;}
	.st48{fill:#E52923;}
	.st49{fill:#125B95;}
	.st50{fill:#EEEDED;}
	.st51{fill:#B1B1B0;}
	.st52{fill:#98C01E;}
	.st53{fill:url(#SVGID_5_);}
	.st54{fill:#5DC2DB;}
	.st55{fill:url(#SVGID_6_);}
	.st56{fill:url(#SVGID_7_);}
	.st57{fill:#030405;}
	.st58{fill:#8666A4;}
	.st59{fill:#AE8FC2;}
	.st60{fill:#8860A3;}
	.st61{fill:#704693;}
	.st62{fill:#C8C6C7;}
	.st63{fill:#A7C835;}
	.st64{fill:#64B335;}
	.st65{fill:#174865;}
	.st66{fill:#5895C5;}
	.st67{fill:#4F2672;}
	.st68{fill:url(#SVGID_8_);}
	.st69{fill:url(#SVGID_9_);}
	.st70{fill:url(#SVGID_10_);}
	.st71{fill:url(#SVGID_11_);}
	.st72{fill:#FAB21E;}
	.st73{fill:#FBD704;}
	.st74{fill:#FAC00F;}
</style>
<g
   transform="translate(-62.947119,92.119179)"
   id="g106">
  <g
     transform="translate(-11.428571,-137.14286)"
     id="g1013">
  <path
   inkscape:connector-curvature="0"
   d="m 576.48639,-42.778687 h 282.85715 v 25.714285 H 576.48639 Z"
   transform="rotate(45)"
   style="fill:#000000;stroke:#000000"
   id="rect178" />

  <path
   inkscape:connector-curvature="0"
   d="m 387.37167,473.62769 h 282.85715 v 25.71428 H 387.37167 Z"
   style="fill:#000000;stroke:#000000"
   id="rect180" />

  <path
   inkscape:connector-curvature="0"
   d="m -111.50702,705.05786 h 282.85715 v 25.71429 h -282.85715 z"
   transform="rotate(-45)"
   style="fill:#000000;stroke:#000000"
   id="rect182" />

  <path
   inkscape:connector-curvature="0"
   d="m 345.05624,-541.65741 h 282.85715 v 25.71429 H 345.05624 Z"
   transform="rotate(90)"
   style="fill:#000000;stroke:#000000"
   id="rect184" />

</g>
  <g
     id="g1089">
  <g
   id="g1051">
    <path
   sodipodi:nodetypes="csssssc"
   inkscape:connector-curvature="0"
   id="path1019"
   d="m 342.55837,645.71429 c 0,0 54.59728,-48.27706 85.3128,-42.85715 18.73883,3.30657 23.69941,42.33642 42.6564,42.85715 37.4781,1.02949 50.34561,-81.10764 87.82199,-80 20.1364,0.59515 25.22264,42.48842 45.1656,45.71428 19.26079,3.11551 33.25353,-27.71608 52.6932,-28.57143 11.64101,-0.51221 32.6196,14.28572 32.6196,14.28572"
   style="fill:none;stroke:#000000;stroke-width:12;stroke-linecap:butt;stroke-linejoin:miter;stroke-miterlimit:4;stroke-dasharray:none;stroke-opacity:1" />

    <g
   style="fill:#3465a4;stroke-width:12;stroke-miterlimit:4;stroke-dasharray:none"
   transform="matrix(1,0,0.14235912,1,-82.244748,1.428578e-8)"
   id="g1027">
      <path
   style="fill:#3465a4;stroke:#000000;stroke-width:12;stroke-linecap:butt;stroke-linejoin:miter;stroke-miterlimit:4;stroke-dasharray:none;stroke-opacity:1"
   d="m 588.39834,607.56128 c 0,0 -22.24,65.84938 -11.25548,95.29586 6.60717,17.712 21.09636,31.27915 39.99999,31.42858 24.28029,0.19193 35.71714,-11.28969 45.4302,-33.76578 15.64492,-36.20246 -4.55103,-118.67295 -12.35745,-118.67295 -27.83588,14.2613 -45.84155,20.41164 -61.81726,25.71429 z"
   id="path1021"
   inkscape:connector-curvature="0"
   sodipodi:nodetypes="cssscc" />

      <path
   sodipodi:nodetypes="cc"
   style="fill:#3465a4;stroke:#000000;stroke-width:12;stroke-linecap:butt;stroke-linejoin:miter;stroke-miterlimit:4;stroke-dasharray:none;stroke-opacity:1"
   d="m 625.08028,598.15301 c 17.66074,29.14909 -0.94586,72.44955 -8.70843,99.01958"
   id="path1023"
   inkscape:connector-curvature="0" />

    </g>

  </g>

</g>
</g>
</svg>
