<?xml version="1.0" encoding="UTF-8" standalone="no"?>
<svg
   xmlns:dc="http://purl.org/dc/elements/1.1/"
   xmlns:cc="http://creativecommons.org/ns#"
   xmlns:rdf="http://www.w3.org/1999/02/22-rdf-syntax-ns#"
   xmlns:svg="http://www.w3.org/2000/svg"
   xmlns="http://www.w3.org/2000/svg"
   xmlns:sodipodi="http://sodipodi.sourceforge.net/DTD/sodipodi-0.dtd"
   xmlns:inkscape="http://www.inkscape.org/namespaces/inkscape"
   inkscape:version="1.0beta1 (32d4812, 2019-09-19)"
   sodipodi:docname="kidaha-06-dead.svg"
   xml:space="preserve"
   style="enable-background:new 0 0 1000 1000;"
   viewBox="0 0 1000 1000"
   y="0px"
   x="0px"
   id="monster"
   version="1.1"><metadata
   id="metadata64">
  <rdf:RDF>
    <cc:Work
       rdf:about="">
      <dc:format>image/svg+xml</dc:format>
      <dc:type
         rdf:resource="http://purl.org/dc/dcmitype/StillImage" />
      <dc:title></dc:title>
    </cc:Work>
  </rdf:RDF>
</metadata>
<defs
   id="defs62">
	
	
	
	
	
	
	
</defs>
<sodipodi:namedview
   inkscape:current-layer="monster"
   inkscape:window-maximized="0"
   inkscape:window-y="23"
   inkscape:window-x="0"
   inkscape:cy="560"
   inkscape:cx="400"
   inkscape:zoom="0.35"
   showgrid="false"
   id="namedview60"
   inkscape:window-height="1209"
   inkscape:window-width="1600"
   inkscape:pageshadow="2"
   inkscape:pageopacity="0"
   guidetolerance="10"
   gridtolerance="10"
   objecttolerance="10"
   borderopacity="1"
   inkscape:document-rotation="0"
   bordercolor="#666666"
   pagecolor="#ffffff" />

<style
   id="style10"
   type="text/css">
	.st0{fill:#C783B7;}
	.st1{fill:#125785;}
	.st2{fill:#8E4C87;}
	.st3{fill:#1B70B6;}
	.st4{fill:#66A0D7;}
	.st5{fill:#1E1F1D;}
	.st6{fill:#A3201B;}
	.st7{fill:#E32D28;}
	.st8{fill:url(#SVGID_1_);}
	.st9{fill:#FFFFFF;}
	.st10{fill:#D5418F;}
	.st11{fill:#E3C724;}
	.st12{fill:#A7C833;}
	.st13{fill:#E6362C;}
	.st14{fill:#C72C28;}
	.st15{fill:#E3AB28;}
	.st16{fill:#9DC42B;}
	.st17{fill:#FADF21;}
	.st18{fill:#CA9220;}
	.st19{fill:#94C128;}
	.st20{fill:#74922B;}
	.st21{fill:#59AE33;}
	.st22{fill:#499834;}
	.st23{fill:#E62A46;}
	.st24{fill:#CD163B;}
	.st25{fill:#063E51;}
	.st26{fill:#B2B1B0;}
	.st27{fill:#E62A3B;}
	.st28{fill:#CA152C;}
	.st29{fill:url(#SVGID_2_);}
	.st30{fill:url(#SVGID_3_);}
	.st31{fill:#C71B1B;}
	.st32{fill:#E52523;}
	.st33{fill:url(#SVGID_4_);}
	.st34{fill:#E43333;}
	.st35{fill:#9C1C1B;}
	.st36{fill:#C8C7C7;}
	.st37{fill:#C39E05;}
	.st38{fill:#E5B90D;}
	.st39{fill:#F1C906;}
	.st40{fill:#F7B21C;}
	.st41{fill:#566EB3;}
	.st42{fill:#4081C2;}
	.st43{fill:#F2AABB;}
	.st44{fill:#EA6379;}
	.st45{fill:#C83C5A;}
	.st46{fill:#CF4162;}
	.st47{fill:#B01C1C;}
	.st48{fill:#E52923;}
	.st49{fill:#125B95;}
	.st50{fill:#EEEDED;}
	.st51{fill:#B1B1B0;}
	.st52{fill:#98C01E;}
	.st53{fill:url(#SVGID_5_);}
	.st54{fill:#5DC2DB;}
	.st55{fill:url(#SVGID_6_);}
	.st56{fill:url(#SVGID_7_);}
	.st57{fill:#030405;}
	.st58{fill:#8666A4;}
	.st59{fill:#AE8FC2;}
	.st60{fill:#8860A3;}
	.st61{fill:#704693;}
	.st62{fill:#C8C6C7;}
	.st63{fill:#A7C835;}
	.st64{fill:#64B335;}
	.st65{fill:#174865;}
	.st66{fill:#5895C5;}
	.st67{fill:#4F2672;}
	.st68{fill:url(#SVGID_8_);}
	.st69{fill:url(#SVGID_9_);}
	.st70{fill:url(#SVGID_10_);}
	.st71{fill:url(#SVGID_11_);}
	.st72{fill:#FAB21E;}
	.st73{fill:#FBD704;}
	.st74{fill:#FAC00F;}
</style>


<style
   id="style10-8"
   type="text/css">
	.st0{fill:#C783B7;}
	.st1{fill:#125785;}
	.st2{fill:#8E4C87;}
	.st3{fill:#1B70B6;}
	.st4{fill:#66A0D7;}
	.st5{fill:#1E1F1D;}
	.st6{fill:#A3201B;}
	.st7{fill:#E32D28;}
	.st8{fill:url(#SVGID_1_);}
	.st9{fill:#FFFFFF;}
	.st10{fill:#D5418F;}
	.st11{fill:#E3C724;}
	.st12{fill:#A7C833;}
	.st13{fill:#E6362C;}
	.st14{fill:#C72C28;}
	.st15{fill:#E3AB28;}
	.st16{fill:#9DC42B;}
	.st17{fill:#FADF21;}
	.st18{fill:#CA9220;}
	.st19{fill:#94C128;}
	.st20{fill:#74922B;}
	.st21{fill:#59AE33;}
	.st22{fill:#499834;}
	.st23{fill:#E62A46;}
	.st24{fill:#CD163B;}
	.st25{fill:#063E51;}
	.st26{fill:#B2B1B0;}
	.st27{fill:#E62A3B;}
	.st28{fill:#CA152C;}
	.st29{fill:url(#SVGID_2_);}
	.st30{fill:url(#SVGID_3_);}
	.st31{fill:#C71B1B;}
	.st32{fill:#E52523;}
	.st33{fill:url(#SVGID_4_);}
	.st34{fill:#E43333;}
	.st35{fill:#9C1C1B;}
	.st36{fill:#C8C7C7;}
	.st37{fill:#C39E05;}
	.st38{fill:#E5B90D;}
	.st39{fill:#F1C906;}
	.st40{fill:#F7B21C;}
	.st41{fill:#566EB3;}
	.st42{fill:#4081C2;}
	.st43{fill:#F2AABB;}
	.st44{fill:#EA6379;}
	.st45{fill:#C83C5A;}
	.st46{fill:#CF4162;}
	.st47{fill:#B01C1C;}
	.st48{fill:#E52923;}
	.st49{fill:#125B95;}
	.st50{fill:#EEEDED;}
	.st51{fill:#B1B1B0;}
	.st52{fill:#98C01E;}
	.st53{fill:url(#SVGID_5_);}
	.st54{fill:#5DC2DB;}
	.st55{fill:url(#SVGID_6_);}
	.st56{fill:url(#SVGID_7_);}
	.st57{fill:#030405;}
	.st58{fill:#8666A4;}
	.st59{fill:#AE8FC2;}
	.st60{fill:#8860A3;}
	.st61{fill:#704693;}
	.st62{fill:#C8C6C7;}
	.st63{fill:#A7C835;}
	.st64{fill:#64B335;}
	.st65{fill:#174865;}
	.st66{fill:#5895C5;}
	.st67{fill:#4F2672;}
	.st68{fill:url(#SVGID_8_);}
	.st69{fill:url(#SVGID_9_);}
	.st70{fill:url(#SVGID_10_);}
	.st71{fill:url(#SVGID_11_);}
	.st72{fill:#FAB21E;}
	.st73{fill:#FBD704;}
	.st74{fill:#FAC00F;}
</style>
<g
   transform="rotate(90,500.00016,499.99855)"
   id="g185">
  <path
     style="opacity:1;stop-opacity:1"
     inkscape:connector-curvature="0"
     id="path12"
     d="m 617.8569,938.1255 c -34.7627,9.4014 -34.7627,9.4014 -34.7627,9.4014 L 611.064,936.709 c 0,0 0.7416,-11.7188 -22.7047,-6.7144 -10.4395,2.2144 -26.274,7.5674 -40.6348,13.9668 l 54.9624,-213.0595 h -33.999 l -38.1387,221.7646 c -9.5903,5.625 -16.27,11.3691 -16.27,16.1397 H 634.479 c 0,0 18.1499,-40.0596 -16.6221,-30.6807 z"
     class="st41" />
  <path
     style="opacity:1;stop-opacity:1"
     inkscape:connector-curvature="0"
     id="path14"
     d="m 384.1621,938.1255 c 34.7954,9.4014 34.7954,9.4014 34.7954,9.4014 L 390.9766,936.709 c 0,0 -0.7544,-11.7188 22.6845,-6.7144 10.4375,2.2144 26.2832,7.5674 40.6328,13.9668 L 399.3442,730.9019 h 34.0083 l 38.1246,221.7646 c 9.6049,5.625 16.2626,11.3691 16.2626,16.1397 H 367.5396 c 0,0 -18.1309,-40.0596 16.6225,-30.6807 z"
     class="st41" />
  <g
     style="opacity:1;stop-opacity:1"
     id="XMLID_283_">
		<g
   id="g24">
			<path
   inkscape:connector-curvature="0"
   id="path16"
   d="m 212.7612,247.6636 c -0.02,0.0195 -0.02,0.0195 -0.02,0.0195 0,0 0,-0.0195 0.02,-0.0195 z"
   class="st42" />

			<path
   inkscape:connector-curvature="0"
   id="path18"
   d="m 789.248,247.6636 c 0.0201,0 0.0201,0.0195 0.0201,0.0195 0,0 0,0 -0.0201,-0.0195 z"
   class="st4" />

			<path
   inkscape:connector-curvature="0"
   id="path20"
   d="M 271.1772,141.6182 C 341.0146,44.7339 500.9946,31.1909 500.9946,31.1909 c 0,0 159.98,13.543 229.8374,110.4273 0,0 -42.8305,-12.8887 -56.3144,-9.8155 0,0 71.7217,32.6783 114.7304,115.8609 -0.892,-0.8926 -29.664,-29.5454 -62.937,-36.188 0,0 58.5747,41.6211 90.1226,151.4536 -0.9917,-1.2295 -32.5791,-41.1055 -65.5547,-43.3262 0,0 65.5746,146.4761 65.5746,279.4292 0,60.6568 -26.7495,117.5459 -73.5854,161.5069 l -0.0201,0.02 C 689.9643,798.4917 620.0478,823.6743 538.0551,828.0962 344.3062,838.5659 204.79,726.7109 197.374,588.999 c -2.7959,-51.5156 3.7871,-105.4106 13.1465,-152.8218 0.02,-0.0395 0.02,-0.0795 0.02,-0.1191 18.5596,-67.2598 40.5899,-116.4551 40.5899,-116.4551 -32.9756,2.2207 -64.6031,42.0967 -65.5943,43.3262 31.5674,-109.8325 90.1421,-151.4536 90.1421,-151.4536 -33.2729,6.6426 -62.0249,35.2954 -62.917,36.188 42.9893,-83.1826 114.75,-115.8609 114.75,-115.8609 -13.5234,-3.0732 -56.334,9.8155 -56.334,9.8155 z"
   class="st4" />

			<path
   inkscape:connector-curvature="0"
   id="path22"
   d="m 538.0552,828.0962 c 81.9927,-4.4219 151.9092,-29.6045 204.7929,-67.5371 -55.8183,52.3481 -140.1904,86.3154 -241.8535,86.3154 -187.0068,0 -315.4785,-114.9087 -315.4785,-247.8423 0,-55.8579 11.5801,-114.0957 25.0044,-162.855 -9.3594,47.4112 -15.9424,101.3062 -13.1465,152.8218 7.416,137.7119 146.9322,249.5669 340.6812,239.0972 z"
   class="st42" />

		</g>

	</g>
  <path
     style="opacity:1;stop-opacity:1"
     inkscape:connector-curvature="0"
     id="path27"
     d="m 45.6211,639.5405 c 8.6631,-7.7998 21.6968,-17.8823 35.2573,-22.9824 22.0352,-61.1465 55.9463,-118.456 105.3604,-161.4033 21.271,-18.4966 46.5425,-36.6094 73.7187,-45.4033 18.981,-6.1358 27.0029,23.6689 8.1382,29.7573 -1.3457,0.4258 -2.6768,0.9653 -3.9985,1.4897 -0.9619,0.4317 -1.9429,0.8457 -2.8951,1.2935 -2.7617,1.2637 -5.476,2.6084 -8.165,4.0127 -16.333,8.4448 -30.6245,18.5063 -43.6821,29.5493 -44.4629,37.6533 -75.5952,88.042 -96.2349,142.0859 0.541,0.3565 1.0689,0.7227 1.6035,1.1123 13.7051,10.4161 14.6104,28.6539 17.7901,44.0313 3.104,14.7832 40.5825,49.5273 14.8384,60.1973 -26.8794,11.1142 -31.5157,-38.8985 -49.0684,-37.9707 -13.5103,0.707 -7.3838,28.3144 -6.3467,35.7797 2.5303,17.8648 9.9898,38.7793 3.313,56.419 -9.4019,24.7573 -39.5688,9.5098 -52.7114,-2.7637 -15.8584,-14.8169 -23.0093,-38.7153 -24.8672,-59.7866 -2.4815,-28.2935 6.623,-56.2246 27.9497,-75.418 z"
     class="st4" />
  <path
     style="opacity:1;stop-opacity:1"
     inkscape:connector-curvature="0"
     id="path29"
     d="M 954.3779,620.3101 C 945.7148,612.4995 932.6797,602.4497 919.1221,597.3286 897.084,536.1929 863.1729,478.8608 813.7495,435.9253 792.4878,417.4546 767.2178,399.3252 740.042,390.5376 c -18.9912,-6.1523 -26.9927,23.6519 -8.1494,29.75 1.3657,0.4321 2.6875,0.9556 3.9951,1.4956 0.9761,0.4053 1.9585,0.8423 2.8965,1.2681 2.7646,1.2636 5.4902,2.6299 8.1684,4.0205 16.3423,8.4526 30.6324,18.5239 43.69,29.562 44.4472,37.6308 75.5952,88.0415 96.2285,142.0757 -0.522,0.3667 -1.0723,0.7227 -1.5972,1.1274 -13.7016,10.4014 -14.5991,28.6392 -17.7885,44.0327 -3.1041,14.7676 -40.5997,49.5098 -14.8365,60.1807 26.8682,11.1128 31.4873,-38.8984 49.0679,-37.9712 13.498,0.7246 7.3936,28.314 6.3296,35.7842 -2.5132,17.8716 -9.9849,38.7754 -3.2959,56.4033 9.4018,24.7583 39.5659,9.5259 52.7085,-2.7363 15.8706,-14.8428 23.0093,-38.7261 24.8672,-59.8028 2.4941,-28.2768 -6.6392,-56.2251 -27.9483,-75.4174 z"
     class="st4" />
  <g
     style="opacity:1;stop-opacity:1"
     transform="matrix(0.66784097,0,0,0.66784097,117.48168,128.20697)"
     id="g1013">
  <path
   inkscape:connector-curvature="0"
   d="m 576.48639,-42.778687 h 282.85715 v 25.714285 H 576.48639 Z"
   transform="rotate(45)"
   style="fill:#000000;stroke:#000000"
   id="rect178" />

  <path
   inkscape:connector-curvature="0"
   d="m 387.37167,473.62769 h 282.85715 v 25.71428 H 387.37167 Z"
   style="fill:#000000;stroke:#000000"
   id="rect180" />

  <path
   inkscape:connector-curvature="0"
   d="m -111.50702,705.05786 h 282.85715 v 25.71429 h -282.85715 z"
   transform="rotate(-45)"
   style="fill:#000000;stroke:#000000"
   id="rect182" />

  <path
   inkscape:connector-curvature="0"
   d="m 345.05624,-541.65741 h 282.85715 v 25.71429 H 345.05624 Z"
   transform="rotate(90)"
   style="fill:#000000;stroke:#000000"
   id="rect184" />

</g>
  <g
     style="opacity:1;stop-opacity:1"
     id="g1089"
     transform="translate(-30.689078,33.72931)">
  <g
   id="g1051">
    <path
   sodipodi:nodetypes="csssssc"
   inkscape:connector-curvature="0"
   id="path1019"
   d="m 342.55837,645.71429 c 0,0 54.59728,-48.27706 85.3128,-42.85715 18.73883,3.30657 23.69941,42.33642 42.6564,42.85715 37.4781,1.02949 50.34561,-81.10764 87.82199,-80 20.1364,0.59515 25.22264,42.48842 45.1656,45.71428 19.26079,3.11551 33.25353,-27.71608 52.6932,-28.57143 11.64101,-0.51221 32.6196,14.28572 32.6196,14.28572"
   style="fill:none;stroke:#000000;stroke-width:12;stroke-linecap:butt;stroke-linejoin:miter;stroke-miterlimit:4;stroke-dasharray:none;stroke-opacity:1" />

    <g
   style="fill:#3465a4;stroke-width:12;stroke-miterlimit:4;stroke-dasharray:none"
   transform="matrix(1,0,0.14235912,1,-82.244748,1.428578e-8)"
   id="g1027">
      <path
   style="fill:#3465a4;stroke:#000000;stroke-width:12;stroke-linecap:butt;stroke-linejoin:miter;stroke-miterlimit:4;stroke-dasharray:none;stroke-opacity:1"
   d="m 588.39834,607.56128 c 0,0 -22.24,65.84938 -11.25548,95.29586 6.60717,17.712 21.09636,31.27915 39.99999,31.42858 24.28029,0.19193 35.71714,-11.28969 45.4302,-33.76578 15.64492,-36.20246 -4.55103,-118.67295 -12.35745,-118.67295 -27.83588,14.2613 -45.84155,20.41164 -61.81726,25.71429 z"
   id="path1021"
   inkscape:connector-curvature="0"
   sodipodi:nodetypes="cssscc" />

      <path
   sodipodi:nodetypes="cc"
   style="fill:#3465a4;stroke:#000000;stroke-width:12;stroke-linecap:butt;stroke-linejoin:miter;stroke-miterlimit:4;stroke-dasharray:none;stroke-opacity:1"
   d="m 625.08028,598.15301 c 17.66074,29.14909 -0.94586,72.44955 -8.70843,99.01958"
   id="path1023"
   inkscape:connector-curvature="0" />

    </g>

  </g>

</g>
  <g
     id="g157"
     transform="matrix(0.66784097,0,0,0.66784097,306.38527,111.03392)"
     style="opacity:1;stop-opacity:1">
  <path
   id="path149"
   style="fill:#000000;stroke:#000000"
   transform="rotate(45)"
   d="m 576.48639,-42.778687 h 282.85715 v 25.714285 H 576.48639 Z"
   inkscape:connector-curvature="0" />

  <path
   id="path151"
   style="fill:#000000;stroke:#000000"
   d="m 387.37167,473.62769 h 282.85715 v 25.71428 H 387.37167 Z"
   inkscape:connector-curvature="0" />

  <path
   id="path153"
   style="fill:#000000;stroke:#000000"
   transform="rotate(-45)"
   d="m -111.50702,705.05786 h 282.85715 v 25.71429 h -282.85715 z"
   inkscape:connector-curvature="0" />

  <path
   id="path155"
   style="fill:#000000;stroke:#000000"
   transform="rotate(90)"
   d="m 345.05624,-541.65741 h 282.85715 v 25.71429 H 345.05624 Z"
   inkscape:connector-curvature="0" />

</g>
</g>
</svg>
