<?xml version="1.0" encoding="UTF-8" standalone="no"?>
<svg
   xmlns:dc="http://purl.org/dc/elements/1.1/"
   xmlns:cc="http://creativecommons.org/ns#"
   xmlns:rdf="http://www.w3.org/1999/02/22-rdf-syntax-ns#"
   xmlns:svg="http://www.w3.org/2000/svg"
   xmlns="http://www.w3.org/2000/svg"
   xmlns:sodipodi="http://sodipodi.sourceforge.net/DTD/sodipodi-0.dtd"
   xmlns:inkscape="http://www.inkscape.org/namespaces/inkscape"
   inkscape:version="1.0beta1 (32d4812, 2019-09-19)"
   sodipodi:docname="kidaha-05-dead.svg"
   xml:space="preserve"
   style="enable-background:new 0 0 1000 1000;"
   viewBox="0 0 1000 1000"
   y="0px"
   x="0px"
   id="monster"
   version="1.1"><metadata
   id="metadata106">
  <rdf:RDF>
    <cc:Work
       rdf:about="">
      <dc:format>image/svg+xml</dc:format>
      <dc:type
         rdf:resource="http://purl.org/dc/dcmitype/StillImage" />
      <dc:title></dc:title>
    </cc:Work>
  </rdf:RDF>
</metadata>
<defs
   id="defs104">
	<linearGradient
   id="SVGID_1_"
   gradientUnits="userSpaceOnUse"
   x1="295.4054"
   y1="892.5036"
   x2="710.792"
   y2="299.2701">
		<stop
   offset="0"
   style="stop-color:#F8B133"
   id="stop12" />

		<stop
   offset="0.2362"
   style="stop-color:#F9B531"
   id="stop14" />

		<stop
   offset="0.5303"
   style="stop-color:#FBC02B"
   id="stop16" />

		<stop
   offset="0.8538"
   style="stop-color:#FED11A"
   id="stop18" />

		<stop
   offset="1"
   style="stop-color:#FFD907"
   id="stop20" />

	</linearGradient>

	
	
	
	
	

		
	
			
		</defs>
<sodipodi:namedview
   inkscape:current-layer="monster"
   inkscape:window-maximized="0"
   inkscape:window-y="23"
   inkscape:window-x="0"
   inkscape:cy="560"
   inkscape:cx="400"
   inkscape:zoom="0.35"
   showgrid="false"
   id="namedview102"
   inkscape:window-height="1209"
   inkscape:window-width="1600"
   inkscape:pageshadow="2"
   inkscape:pageopacity="0"
   guidetolerance="10"
   gridtolerance="10"
   objecttolerance="10"
   borderopacity="1"
   inkscape:document-rotation="0"
   bordercolor="#666666"
   pagecolor="#ffffff" />

<style
   id="style10"
   type="text/css">
	.st0{fill:#C783B7;}
	.st1{fill:#125785;}
	.st2{fill:#8E4C87;}
	.st3{fill:#1B70B6;}
	.st4{fill:#66A0D7;}
	.st5{fill:#1E1F1D;}
	.st6{fill:#A3201B;}
	.st7{fill:#E32D28;}
	.st8{fill:url(#SVGID_1_);}
	.st9{fill:#FFFFFF;}
	.st10{fill:#D5418F;}
	.st11{fill:#E3C724;}
	.st12{fill:#A7C833;}
	.st13{fill:#E6362C;}
	.st14{fill:#C72C28;}
	.st15{fill:#E3AB28;}
	.st16{fill:#9DC42B;}
	.st17{fill:#FADF21;}
	.st18{fill:#CA9220;}
	.st19{fill:#94C128;}
	.st20{fill:#74922B;}
	.st21{fill:#59AE33;}
	.st22{fill:#499834;}
	.st23{fill:#E62A46;}
	.st24{fill:#CD163B;}
	.st25{fill:#063E51;}
	.st26{fill:#B2B1B0;}
	.st27{fill:#E62A3B;}
	.st28{fill:#CA152C;}
	.st29{fill:url(#SVGID_2_);}
	.st30{fill:url(#SVGID_3_);}
	.st31{fill:#C71B1B;}
	.st32{fill:#E52523;}
	.st33{fill:url(#SVGID_4_);}
	.st34{fill:#E43333;}
	.st35{fill:#9C1C1B;}
	.st36{fill:#C8C7C7;}
	.st37{fill:#C39E05;}
	.st38{fill:#E5B90D;}
	.st39{fill:#F1C906;}
	.st40{fill:#F7B21C;}
	.st41{fill:#566EB3;}
	.st42{fill:#4081C2;}
	.st43{fill:#F2AABB;}
	.st44{fill:#EA6379;}
	.st45{fill:#C83C5A;}
	.st46{fill:#CF4162;}
	.st47{fill:#B01C1C;}
	.st48{fill:#E52923;}
	.st49{fill:#125B95;}
	.st50{fill:#EEEDED;}
	.st51{fill:#B1B1B0;}
	.st52{fill:#98C01E;}
	.st53{fill:url(#SVGID_5_);}
	.st54{fill:#5DC2DB;}
	.st55{fill:url(#SVGID_6_);}
	.st56{fill:url(#SVGID_7_);}
	.st57{fill:#030405;}
	.st58{fill:#8666A4;}
	.st59{fill:#AE8FC2;}
	.st60{fill:#8860A3;}
	.st61{fill:#704693;}
	.st62{fill:#C8C6C7;}
	.st63{fill:#A7C835;}
	.st64{fill:#64B335;}
	.st65{fill:#174865;}
	.st66{fill:#5895C5;}
	.st67{fill:#4F2672;}
	.st68{fill:url(#SVGID_8_);}
	.st69{fill:url(#SVGID_9_);}
	.st70{fill:url(#SVGID_10_);}
	.st71{fill:url(#SVGID_11_);}
	.st72{fill:#FAB21E;}
	.st73{fill:#FBD704;}
	.st74{fill:#FAC00F;}
</style>

<path
   class="st8"
   d="M 875.3213,555.9092 C 851.6973,496.7285 815.04,447.7813 772.6953,414.291 l 31.3848,-15.1201 c 8.3847,-3.8857 5.8047,-15.7236 -6.3047,-24.8926 -42.8789,-32.4375 -90.7637,-51.4365 -134.9961,-55.6758 l 19.3828,-28.6015 c 2.5869,-3.8262 2.125,-7.8018 -0.8769,-11.0283 -2.9893,-3.2071 -8.4805,-5.6377 -15.5049,-6.169 -23.0625,-1.7627 -45.2686,-0.1953 -65.6739,4.2305 -15.8496,3.4248 -30.5683,8.5888 -44.0263,15.082 -18.1797,-3.5117 -36.9531,-5.3799 -56.167,-5.3799 -19.1553,0 -37.8897,1.8477 -56.042,5.3604 -13.4287,-6.4815 -28.1377,-11.6377 -43.9785,-15.0625 -20.4024,-4.4258 -42.6094,-5.9932 -65.6602,-4.2305 -7.0273,0.5313 -12.5244,2.9619 -15.498,6.169 -3.0176,3.2265 -3.4824,7.2021 -0.8828,11.0283 l 19.3691,28.6015 c -44.2324,4.2393 -92.1172,23.2383 -134.9941,55.6758 -12.0899,9.169 -14.6875,21.0069 -6.3057,24.8926 l 31.3838,15.1201 c -42.3418,33.4903 -78.9815,82.4375 -102.626,141.6182 -5.9912,15.0224 -2.3799,27.4678 6.8291,26.7589 l 59.7295,-3.7686 c -11.9932,30.0762 -20.042,63.4502 -22.7139,98.9873 -2.6884,35.5264 -0.0429,73.2276 9.2676,111.4414 4.0235,16.4795 14.627,25.1875 21.7207,19.3311 l 49.0459,-39.1563 c 9.8096,39.4023 28.4922,79.5625 57.792,115.8867 29.1611,36.2471 69.3789,68.4981 118.457,90.4161 8.5889,3.8476 16.7823,5.1172 22.7266,4.2334 5.9512,-0.876 9.6201,-3.8575 9.6514,-8.4834 l 0.9619,-100.4903 c 13.6484,1.959 27.5898,2.9717 41.7666,2.9717 14.2353,0 28.2471,-1.0332 41.9443,-2.9814 l 0.9619,100.5 c 0.0401,4.6259 3.6983,7.6074 9.6495,8.4834 5.9433,0.8838 14.1386,-0.3858 22.7265,-4.2334 49.0781,-21.918 89.3076,-54.169 118.4668,-90.4161 29.3096,-36.3242 47.9736,-76.4843 57.793,-115.8867 l 49.0351,39.1563 c 7.0928,5.8564 17.6993,-2.8516 21.7227,-19.3311 9.3076,-38.2138 11.9541,-75.915 9.2598,-111.4414 -2.668,-35.5371 -10.7149,-68.9111 -22.7178,-98.9873 l 59.7373,3.7686 c 9.209,0.7089 12.8203,-11.7365 6.8291,-26.7589 z"
   id="path23"
   style="opacity:1;fill:url(#SVGID_1_);stop-opacity:1"
   inkscape:connector-curvature="0" />
<g
   transform="matrix(1,0,0,-1,0,1386.772)"
   id="g38"
   style="opacity:1;stop-opacity:1">
		<g
   id="XMLID_258_">
			<g
   id="g35">
				<path
   class="st34"
   d="m 500,714.4424 c 51.8066,0 83.084,23.1943 97.3643,37.3535 l -0.0342,0.0347 c -20.2178,27.2099 -50.9766,48.0849 -97.7627,48.0849 -46.5098,0 -77.1992,-20.6328 -97.4336,-47.6006 l -0.0176,-0.017 C 416.1543,738.1909 447.5703,714.4424 500,714.4424 Z"
   id="path25"
   inkscape:connector-curvature="0" />

				<path
   class="st35"
   d="m 393.3408,762.5449 c 0,0 2.8389,-4.2583 8.7754,-10.247 l 0.0176,0.017 c 20.2344,26.9678 50.9238,47.6006 97.4336,47.6006 46.7861,0 77.5449,-20.875 97.7627,-48.0849 l 0.0342,-0.0347 c 6.2832,6.2661 9.2773,10.749 9.2773,10.749 -21.5498,30.4815 -54.9561,54.2989 -106.6416,54.2989 -51.7031,0 -85.0918,-23.8174 -106.6592,-54.2989 z"
   id="path27"
   inkscape:connector-curvature="0" />

				<path
   class="st5"
   d="m 646.0381,632.7778 c 0,0 -0.9522,75.4854 -39.3965,129.7672 0,0 -2.9941,-4.4829 -9.2773,-10.749 C 583.084,737.6367 551.8066,714.4424 500,714.4424 c -52.4297,0 -83.8457,23.7485 -97.8838,37.8555 -5.9365,5.9887 -8.7754,10.247 -8.7754,10.247 -38.4267,-54.2817 -39.3613,-129.7672 -39.3613,-129.7672 v -62.8495 h 26.8984 v 10.8179 106.417 l 47.791,-92.2925 21.792,31.1567 23.1944,-27.6084 26.3447,30.1006 22.7617,-30.1006 23.2119,27.6084 21.8096,-31.1567 47.7559,92.2925 v -106.417 -10.8179 h 30.499 z"
   id="path29"
   inkscape:connector-curvature="0" />

				<polygon
   class="st36"
   points="615.5391,569.9282 615.5391,580.7461 380.8779,580.7461 380.8779,569.9282 500,569.9282 "
   id="polygon31" />

				<polygon
   class="st9"
   points="567.7832,594.8706 545.9736,626.0273 522.7617,598.4189 500,628.5195 473.6553,598.4189 450.4609,626.0273 428.6689,594.8706 380.8779,687.1631 380.8779,580.7461 615.5391,580.7461 615.5391,687.1631 "
   id="polygon33" />

			</g>

		</g>

	</g>
<g
   id="g97"
   style="opacity:1;stop-opacity:1">
		<g
   id="XMLID_191_">
			<g
   id="g76">
				<path
   class="st37"
   d="m 497.2129,279.5244 c -156.6924,0 -224.7949,28.7725 -224.7949,28.7725 -0.9434,-4.7373 -1.7305,-9.544 -2.3594,-14.3687 h 0.0176 c 0,0 67.3154,-34.5405 227.1367,-34.5405 157.7051,0 225.3535,33.6143 227.1533,34.5229 -0.6289,4.8423 -1.415,9.6319 -2.3594,14.3863 0,0 -68.1025,-28.7725 -224.7939,-28.7725 z"
   id="path70"
   inkscape:connector-curvature="0" />

				<path
   class="st38"
   d="m 272.418,308.2969 c 0,0 68.1025,-28.7725 224.7949,-28.7725 156.6914,0 224.7939,28.7725 224.7939,28.7725 -1.5732,8.0757 -3.5829,15.9941 -6.0127,23.7553 -55.6045,-11.7812 -133.076,-19.1054 -218.7812,-19.1054 -85.7052,0 -163.1602,7.3242 -218.7813,19.1054 -2.4296,-7.7612 -4.4404,-15.6796 -6.0136,-23.7553 z"
   id="path72"
   inkscape:connector-curvature="0" />

				<path
   class="st39"
   d="m 270.0762,293.9282 h -0.0176 c -1.3115,-9.8764 -1.9756,-19.9448 -1.9756,-30.1709 0,-126.5556 102.5733,-229.1294 229.1299,-229.1294 126.5732,0 229.1289,102.5738 229.1289,229.1294 0,10.2261 -0.6641,20.2774 -1.9756,30.1533 -1.7998,-0.9086 -69.4482,-34.5229 -227.1533,-34.5229 -159.8213,0 -227.1367,34.5405 -227.1367,34.5405 z"
   id="path74"
   inkscape:connector-curvature="0" />

			</g>

		</g>

		<g
   id="g86">
			<g
   id="XMLID_190_">
				<g
   id="g83">
					<path
   class="st40"
   d="m 314.0244,148.0063 c 0,0 2.8496,29.4712 -37.3545,33.6314 C 221.3281,107.0503 225.873,19.6846 225.873,19.6846 c 0,0 22.3741,77.9087 88.169,128.3042 z"
   id="path79"
   inkscape:connector-curvature="0" />

					<path
   class="st37"
   d="m 276.6699,181.6377 c 40.2041,-4.1602 37.3545,-33.6314 37.3545,-33.6314 l 0.0176,-0.0175 c 14.1768,10.8901 30.3809,20.4863 48.8223,27.7407 0,0 0,14.8408 -14.1592,32.6352 -14.1934,17.7774 -36.2363,11.4849 -36.2363,11.4849 -14.0889,-11.939 -25.9053,-24.8745 -35.7989,-38.2119 z"
   id="path81"
   inkscape:connector-curvature="0" />

				</g>

			</g>

		</g>

		<g
   id="g95">
			<g
   id="XMLID_189_">
				<g
   id="g92">
					<path
   class="st37"
   d="m 631.5635,175.7295 c 0,0 0,14.8408 14.1758,32.6352 14.1943,17.7774 36.2539,11.4849 36.2539,11.4849 14.0887,-11.939 25.9052,-24.8745 35.7822,-38.2119 -40.1865,-4.1602 -37.3555,-33.6314 -37.3555,-33.6314 l -0.0176,-0.0175 c -14.1933,10.8901 -30.3974,20.4863 -48.8388,27.7407 z"
   id="path88"
   inkscape:connector-curvature="0" />

					<path
   class="st40"
   d="m 717.7754,181.6377 c 55.3418,-74.5874 50.7969,-161.9531 50.7969,-161.9531 0,0 -22.3741,77.9087 -88.17,128.3042 l 0.0176,0.0175 c 0,0 -2.831,29.4712 37.3555,33.6314 z"
   id="path90"
   inkscape:connector-curvature="0" />

				</g>

			</g>

		</g>

	</g>

<style
   id="style10-8"
   type="text/css">
	.st0{fill:#C783B7;}
	.st1{fill:#125785;}
	.st2{fill:#8E4C87;}
	.st3{fill:#1B70B6;}
	.st4{fill:#66A0D7;}
	.st5{fill:#1E1F1D;}
	.st6{fill:#A3201B;}
	.st7{fill:#E32D28;}
	.st8{fill:url(#SVGID_1_);}
	.st9{fill:#FFFFFF;}
	.st10{fill:#D5418F;}
	.st11{fill:#E3C724;}
	.st12{fill:#A7C833;}
	.st13{fill:#E6362C;}
	.st14{fill:#C72C28;}
	.st15{fill:#E3AB28;}
	.st16{fill:#9DC42B;}
	.st17{fill:#FADF21;}
	.st18{fill:#CA9220;}
	.st19{fill:#94C128;}
	.st20{fill:#74922B;}
	.st21{fill:#59AE33;}
	.st22{fill:#499834;}
	.st23{fill:#E62A46;}
	.st24{fill:#CD163B;}
	.st25{fill:#063E51;}
	.st26{fill:#B2B1B0;}
	.st27{fill:#E62A3B;}
	.st28{fill:#CA152C;}
	.st29{fill:url(#SVGID_2_);}
	.st30{fill:url(#SVGID_3_);}
	.st31{fill:#C71B1B;}
	.st32{fill:#E52523;}
	.st33{fill:url(#SVGID_4_);}
	.st34{fill:#E43333;}
	.st35{fill:#9C1C1B;}
	.st36{fill:#C8C7C7;}
	.st37{fill:#C39E05;}
	.st38{fill:#E5B90D;}
	.st39{fill:#F1C906;}
	.st40{fill:#F7B21C;}
	.st41{fill:#566EB3;}
	.st42{fill:#4081C2;}
	.st43{fill:#F2AABB;}
	.st44{fill:#EA6379;}
	.st45{fill:#C83C5A;}
	.st46{fill:#CF4162;}
	.st47{fill:#B01C1C;}
	.st48{fill:#E52923;}
	.st49{fill:#125B95;}
	.st50{fill:#EEEDED;}
	.st51{fill:#B1B1B0;}
	.st52{fill:#98C01E;}
	.st53{fill:url(#SVGID_5_);}
	.st54{fill:#5DC2DB;}
	.st55{fill:url(#SVGID_6_);}
	.st56{fill:url(#SVGID_7_);}
	.st57{fill:#030405;}
	.st58{fill:#8666A4;}
	.st59{fill:#AE8FC2;}
	.st60{fill:#8860A3;}
	.st61{fill:#704693;}
	.st62{fill:#C8C6C7;}
	.st63{fill:#A7C835;}
	.st64{fill:#64B335;}
	.st65{fill:#174865;}
	.st66{fill:#5895C5;}
	.st67{fill:#4F2672;}
	.st68{fill:url(#SVGID_8_);}
	.st69{fill:url(#SVGID_9_);}
	.st70{fill:url(#SVGID_10_);}
	.st71{fill:url(#SVGID_11_);}
	.st72{fill:#FAB21E;}
	.st73{fill:#FBD704;}
	.st74{fill:#FAC00F;}
</style>
<g
   id="g1013"
   transform="matrix(0.5168596,0,0,0.5168596,108.62099,201.18981)"
   style="opacity:1;stop-opacity:1">
  <path
   id="rect178"
   style="fill:#000000;stroke:#000000"
   transform="rotate(45)"
   d="m 576.48639,-42.778687 h 282.85715 v 25.714285 H 576.48639 Z"
   inkscape:connector-curvature="0" />

  <path
   id="rect180"
   style="fill:#000000;stroke:#000000"
   d="m 387.37167,473.62769 h 282.85715 v 25.71428 H 387.37167 Z"
   inkscape:connector-curvature="0" />

  <path
   id="rect182"
   style="fill:#000000;stroke:#000000"
   transform="rotate(-45)"
   d="m -111.50702,705.05786 h 282.85715 v 25.71429 h -282.85715 z"
   inkscape:connector-curvature="0" />

  <path
   id="rect184"
   style="fill:#000000;stroke:#000000"
   transform="rotate(90)"
   d="m 345.05624,-541.65741 h 282.85715 v 25.71429 H 345.05624 Z"
   inkscape:connector-curvature="0" />

</g>
<g
   style="opacity:1;stop-opacity:1"
   transform="matrix(0.5168596,0,0,0.5168596,362.9067,204.04695)"
   id="g217">
  <path
   inkscape:connector-curvature="0"
   d="m 576.48639,-42.778687 h 282.85715 v 25.714285 H 576.48639 Z"
   transform="rotate(45)"
   style="fill:#000000;stroke:#000000"
   id="path209" />

  <path
   inkscape:connector-curvature="0"
   d="m 387.37167,473.62769 h 282.85715 v 25.71428 H 387.37167 Z"
   style="fill:#000000;stroke:#000000"
   id="path211" />

  <path
   inkscape:connector-curvature="0"
   d="m -111.50702,705.05786 h 282.85715 v 25.71429 h -282.85715 z"
   transform="rotate(-45)"
   style="fill:#000000;stroke:#000000"
   id="path213" />

  <path
   inkscape:connector-curvature="0"
   d="m 345.05624,-541.65741 h 282.85715 v 25.71429 H 345.05624 Z"
   transform="rotate(90)"
   style="fill:#000000;stroke:#000000"
   id="path215" />

</g>
</svg>
