<?xml version="1.0" encoding="UTF-8" standalone="no"?>
<svg
   xmlns:dc="http://purl.org/dc/elements/1.1/"
   xmlns:cc="http://creativecommons.org/ns#"
   xmlns:rdf="http://www.w3.org/1999/02/22-rdf-syntax-ns#"
   xmlns:svg="http://www.w3.org/2000/svg"
   xmlns="http://www.w3.org/2000/svg"
   xmlns:sodipodi="http://sodipodi.sourceforge.net/DTD/sodipodi-0.dtd"
   xmlns:inkscape="http://www.inkscape.org/namespaces/inkscape"
   inkscape:version="1.0beta1 (32d4812, 2019-09-19)"
   sodipodi:docname="kidaha-04-dead.svg"
   xml:space="preserve"
   style="enable-background:new 0 0 1000 1000;"
   viewBox="0 0 1000 1000"
   y="0px"
   x="0px"
   id="monster"
   version="1.1"><metadata
   id="metadata76">
  <rdf:RDF>
    <cc:Work
       rdf:about="">
      <dc:format>image/svg+xml</dc:format>
      <dc:type
         rdf:resource="http://purl.org/dc/dcmitype/StillImage" />
      <dc:title></dc:title>
    </cc:Work>
  </rdf:RDF>
</metadata>
<defs
   id="defs74">
	
	
	
	

  

    
    
  </defs>
<sodipodi:namedview
   inkscape:current-layer="monster"
   inkscape:window-maximized="0"
   inkscape:window-y="23"
   inkscape:window-x="0"
   inkscape:cy="560"
   inkscape:cx="400"
   inkscape:zoom="0.35"
   showgrid="false"
   id="namedview72"
   inkscape:window-height="1209"
   inkscape:window-width="1600"
   inkscape:pageshadow="2"
   inkscape:pageopacity="0"
   guidetolerance="10"
   gridtolerance="10"
   objecttolerance="10"
   borderopacity="1"
   inkscape:document-rotation="0"
   bordercolor="#666666"
   pagecolor="#ffffff" />

<style
   id="style10"
   type="text/css">
	.st0{fill:#C783B7;}
	.st1{fill:#125785;}
	.st2{fill:#8E4C87;}
	.st3{fill:#1B70B6;}
	.st4{fill:#66A0D7;}
	.st5{fill:#1E1F1D;}
	.st6{fill:#A3201B;}
	.st7{fill:#E32D28;}
	.st8{fill:url(#SVGID_1_);}
	.st9{fill:#FFFFFF;}
	.st10{fill:#D5418F;}
	.st11{fill:#E3C724;}
	.st12{fill:#A7C833;}
	.st13{fill:#E6362C;}
	.st14{fill:#C72C28;}
	.st15{fill:#E3AB28;}
	.st16{fill:#9DC42B;}
	.st17{fill:#FADF21;}
	.st18{fill:#CA9220;}
	.st19{fill:#94C128;}
	.st20{fill:#74922B;}
	.st21{fill:#59AE33;}
	.st22{fill:#499834;}
	.st23{fill:#E62A46;}
	.st24{fill:#CD163B;}
	.st25{fill:#063E51;}
	.st26{fill:#B2B1B0;}
	.st27{fill:#E62A3B;}
	.st28{fill:#CA152C;}
	.st29{fill:url(#SVGID_2_);}
	.st30{fill:url(#SVGID_3_);}
	.st31{fill:#C71B1B;}
	.st32{fill:#E52523;}
	.st33{fill:url(#SVGID_4_);}
	.st34{fill:#E43333;}
	.st35{fill:#9C1C1B;}
	.st36{fill:#C8C7C7;}
	.st37{fill:#C39E05;}
	.st38{fill:#E5B90D;}
	.st39{fill:#F1C906;}
	.st40{fill:#F7B21C;}
	.st41{fill:#566EB3;}
	.st42{fill:#4081C2;}
	.st43{fill:#F2AABB;}
	.st44{fill:#EA6379;}
	.st45{fill:#C83C5A;}
	.st46{fill:#CF4162;}
	.st47{fill:#B01C1C;}
	.st48{fill:#E52923;}
	.st49{fill:#125B95;}
	.st50{fill:#EEEDED;}
	.st51{fill:#B1B1B0;}
	.st52{fill:#98C01E;}
	.st53{fill:url(#SVGID_5_);}
	.st54{fill:#5DC2DB;}
	.st55{fill:url(#SVGID_6_);}
	.st56{fill:url(#SVGID_7_);}
	.st57{fill:#030405;}
	.st58{fill:#8666A4;}
	.st59{fill:#AE8FC2;}
	.st60{fill:#8860A3;}
	.st61{fill:#704693;}
	.st62{fill:#C8C6C7;}
	.st63{fill:#A7C835;}
	.st64{fill:#64B335;}
	.st65{fill:#174865;}
	.st66{fill:#5895C5;}
	.st67{fill:#4F2672;}
	.st68{fill:url(#SVGID_8_);}
	.st69{fill:url(#SVGID_9_);}
	.st70{fill:url(#SVGID_10_);}
	.st71{fill:url(#SVGID_11_);}
	.st72{fill:#FAB21E;}
	.st73{fill:#FBD704;}
	.st74{fill:#FAC00F;}
</style>

<g
   id="g16"
   style="opacity:1;stop-opacity:1">
		<path
   class="st27"
   d="m 753.0957,265.5815 46.6797,-105.2793 c 10.4541,-23.6074 -0.292,-34.3535 -23.8789,-23.8989 L 645.8672,194.0635 C 620.8545,183.166 594.3955,174.9854 566.8604,169.8857 L 516.8906,40.3315 c -9.2978,-24.0693 -24.4961,-24.0693 -33.7744,0 l -49.9844,129.5542 c -27.1552,5.023 -53.2627,13.0518 -77.9814,23.7139 L 226.1211,136.4033 c -23.5928,-10.4546 -34.3447,0.2915 -23.8906,23.8989 l 46.0879,103.9209 C 178.1582,330.8389 134.415,424.979 134.415,529.3394 c 0,13.4907 0.7481,26.7763 2.1641,39.8833 l 43.0664,408.498 h 139.4356 l 34.8877,-113.1499 c 44.7226,19.5352 94.1015,30.3711 146.0341,30.3711 51.919,0 101.3164,-10.8608 146.0655,-30.3711 l 34.83,113.0732 h 139.4532 l 42.9726,-407.6704 c 1.46,-13.3506 2.2608,-26.8667 2.2608,-40.6342 0,-103.6485 -43.1631,-197.2173 -112.4893,-263.7579 z"
   id="path12"
   inkscape:connector-curvature="0" />

		<path
   class="st28"
   d="m 753.0957,265.5815 c 0,0 80.0625,169.3565 51.7109,364.1163 -16.4238,112.8071 -38.2959,251.3344 -53.7949,347.9462 h 69.3399 l 42.9726,-407.6704 c 1.46,-13.3242 2.2608,-26.8667 2.2608,-40.6093 0,-103.6734 -43.1631,-197.2422 -112.4893,-263.7828 z"
   id="path14"
   inkscape:connector-curvature="0" />

	</g>

<style
   id="style10-8"
   type="text/css">
	.st0{fill:#C783B7;}
	.st1{fill:#125785;}
	.st2{fill:#8E4C87;}
	.st3{fill:#1B70B6;}
	.st4{fill:#66A0D7;}
	.st5{fill:#1E1F1D;}
	.st6{fill:#A3201B;}
	.st7{fill:#E32D28;}
	.st8{fill:url(#SVGID_1_);}
	.st9{fill:#FFFFFF;}
	.st10{fill:#D5418F;}
	.st11{fill:#E3C724;}
	.st12{fill:#A7C833;}
	.st13{fill:#E6362C;}
	.st14{fill:#C72C28;}
	.st15{fill:#E3AB28;}
	.st16{fill:#9DC42B;}
	.st17{fill:#FADF21;}
	.st18{fill:#CA9220;}
	.st19{fill:#94C128;}
	.st20{fill:#74922B;}
	.st21{fill:#59AE33;}
	.st22{fill:#499834;}
	.st23{fill:#E62A46;}
	.st24{fill:#CD163B;}
	.st25{fill:#063E51;}
	.st26{fill:#B2B1B0;}
	.st27{fill:#E62A3B;}
	.st28{fill:#CA152C;}
	.st29{fill:url(#SVGID_2_);}
	.st30{fill:url(#SVGID_3_);}
	.st31{fill:#C71B1B;}
	.st32{fill:#E52523;}
	.st33{fill:url(#SVGID_4_);}
	.st34{fill:#E43333;}
	.st35{fill:#9C1C1B;}
	.st36{fill:#C8C7C7;}
	.st37{fill:#C39E05;}
	.st38{fill:#E5B90D;}
	.st39{fill:#F1C906;}
	.st40{fill:#F7B21C;}
	.st41{fill:#566EB3;}
	.st42{fill:#4081C2;}
	.st43{fill:#F2AABB;}
	.st44{fill:#EA6379;}
	.st45{fill:#C83C5A;}
	.st46{fill:#CF4162;}
	.st47{fill:#B01C1C;}
	.st48{fill:#E52923;}
	.st49{fill:#125B95;}
	.st50{fill:#EEEDED;}
	.st51{fill:#B1B1B0;}
	.st52{fill:#98C01E;}
	.st53{fill:url(#SVGID_5_);}
	.st54{fill:#5DC2DB;}
	.st55{fill:url(#SVGID_6_);}
	.st56{fill:url(#SVGID_7_);}
	.st57{fill:#030405;}
	.st58{fill:#8666A4;}
	.st59{fill:#AE8FC2;}
	.st60{fill:#8860A3;}
	.st61{fill:#704693;}
	.st62{fill:#C8C6C7;}
	.st63{fill:#A7C835;}
	.st64{fill:#64B335;}
	.st65{fill:#174865;}
	.st66{fill:#5895C5;}
	.st67{fill:#4F2672;}
	.st68{fill:url(#SVGID_8_);}
	.st69{fill:url(#SVGID_9_);}
	.st70{fill:url(#SVGID_10_);}
	.st71{fill:url(#SVGID_11_);}
	.st72{fill:#FAB21E;}
	.st73{fill:#FBD704;}
	.st74{fill:#FAC00F;}
</style>
<g
   id="g1013"
   transform="matrix(0.7181681,0,0,0.7181681,-6.4024206,71.827701)"
   style="opacity:1;stop-opacity:1">
  <path
   id="rect178"
   style="fill:#000000;stroke:#000000"
   transform="rotate(45)"
   d="m 576.48639,-42.778687 h 282.85715 v 25.714285 H 576.48639 Z"
   inkscape:connector-curvature="0" />

  <path
   id="rect180"
   style="fill:#000000;stroke:#000000"
   d="m 387.37167,473.62769 h 282.85715 v 25.71428 H 387.37167 Z"
   inkscape:connector-curvature="0" />

  <path
   id="rect182"
   style="fill:#000000;stroke:#000000"
   transform="rotate(-45)"
   d="m -111.50702,705.05786 h 282.85715 v 25.71429 h -282.85715 z"
   inkscape:connector-curvature="0" />

  <path
   id="rect184"
   style="fill:#000000;stroke:#000000"
   transform="rotate(90)"
   d="m 345.05624,-541.65741 h 282.85715 v 25.71429 H 345.05624 Z"
   inkscape:connector-curvature="0" />

</g>
<path
   style="opacity:1;fill:none;stroke:#000000;stroke-width:12;stroke-linecap:butt;stroke-linejoin:miter;stroke-miterlimit:4;stroke-dasharray:none;stroke-opacity:1;stop-opacity:1"
   d="m 312.83748,686.14934 c 0,0 54.59728,-48.27706 85.3128,-42.85715 18.73883,3.30657 23.69941,42.33642 42.6564,42.85715 37.4781,1.02949 50.34561,-81.10764 87.82199,-80 20.1364,0.59515 25.22264,42.48842 45.1656,45.71428 19.26079,3.11551 33.25353,-27.71608 52.6932,-28.57143 11.64101,-0.51221 32.6196,14.28572 32.6196,14.28572"
   id="path1019"
   inkscape:connector-curvature="0"
   sodipodi:nodetypes="csssssc" />
<g
   id="g1027"
   transform="matrix(1,0,0.14235912,1,-111.96563,40.435046)"
   style="opacity:1;fill:#800000;stroke-width:12;stroke-miterlimit:4;stroke-dasharray:none;stop-opacity:1">
      <path
   sodipodi:nodetypes="cssscc"
   inkscape:connector-curvature="0"
   id="path1021"
   d="m 588.39834,607.56128 c 0,0 -22.24,65.84938 -11.25548,95.29586 6.60717,17.712 21.09636,31.27915 39.99999,31.42858 24.28029,0.19193 35.71714,-11.28969 45.4302,-33.76578 15.64492,-36.20246 -4.55103,-118.67295 -12.35745,-118.67295 -27.83588,14.2613 -45.84155,20.41164 -61.81726,25.71429 z"
   style="fill:#800000;stroke:#000000;stroke-width:12;stroke-linecap:butt;stroke-linejoin:miter;stroke-miterlimit:4;stroke-dasharray:none;stroke-opacity:1" />

      <path
   inkscape:connector-curvature="0"
   id="path1023"
   d="m 625.08028,598.15301 c 17.66074,29.14909 -0.94586,72.44955 -8.70843,99.01958"
   style="fill:#800000;stroke:#000000;stroke-width:12;stroke-linecap:butt;stroke-linejoin:miter;stroke-miterlimit:4;stroke-dasharray:none;stroke-opacity:1"
   sodipodi:nodetypes="cc" />

    </g>
<g
   style="opacity:1;stop-opacity:1"
   transform="matrix(0.7181681,0,0,0.7181681,227.88329,57.541987)"
   id="g158">
  <path
   inkscape:connector-curvature="0"
   d="m 576.48639,-42.778687 h 282.85715 v 25.714285 H 576.48639 Z"
   transform="rotate(45)"
   style="fill:#000000;stroke:#000000"
   id="path150" />

  <path
   inkscape:connector-curvature="0"
   d="m 387.37167,473.62769 h 282.85715 v 25.71428 H 387.37167 Z"
   style="fill:#000000;stroke:#000000"
   id="path152" />

  <path
   inkscape:connector-curvature="0"
   d="m -111.50702,705.05786 h 282.85715 v 25.71429 h -282.85715 z"
   transform="rotate(-45)"
   style="fill:#000000;stroke:#000000"
   id="path154" />

  <path
   inkscape:connector-curvature="0"
   d="m 345.05624,-541.65741 h 282.85715 v 25.71429 H 345.05624 Z"
   transform="rotate(90)"
   style="fill:#000000;stroke:#000000"
   id="path156" />

</g>
</svg>
